<svg xmlns="http://www.w3.org/2000/svg" viewBox="0 0 160.33 289.56"><defs><style>.cls-1{opacity:0.1;}.cls-2{fill:#031a23;}.cls-3{fill:#011f2b;}.cls-4{fill:#011923;}.cls-5{fill:#263238;}.cls-6{fill:#fff;}.cls-7{fill:#ffa41c;}.cls-17,.cls-25,.cls-8{opacity:0.5;}.cls-9{fill:#021a23;}.cls-10,.cls-29{fill:#ea911c;}.cls-10,.cls-13,.cls-30{opacity:0.15;}.cls-11{fill:#ffa8a7;}.cls-12{fill:#ef941b;}.cls-14{fill:#f28f8f;}.cls-15,.cls-16,.cls-17,.cls-18,.cls-19{fill:#e0e1e2;}.cls-16{opacity:0.55;}.cls-18,.cls-26{opacity:0.65;}.cls-19{opacity:0.75;}.cls-20{fill:#455a64;}.cls-21{fill:#37474f;}.cls-22,.cls-23,.cls-24,.cls-25,.cls-26{fill:#f8fdff;}.cls-23{opacity:0.4;}.cls-24{opacity:0.35;}.cls-27{fill:#e8e8e8;}.cls-28{opacity:0.25;}.cls-31{fill:#b16668;}.cls-32{fill:#ed931b;}</style></defs><g id="Calque_2" data-name="Calque 2"><g id="Character"><g id="Character-2" data-name="Character"><g id="Bottom"><path id="Shadow" class="cls-1" d="M137.58,265c.92.68,1.85,1.35,2.81,2l17.34,11.47a6.6,6.6,0,0,1,2.12,1.91c1.39,2.29-.47,5.25-2.71,6.73a16.72,16.72,0,0,1-10.77,2.35,33,33,0,0,1-10.71-3.22c-12-5.56-22.21-14.68-34.48-19.68-6.13-2.5-12.66-3.93-18.77-6.47s-12-6.5-14.93-12.43c-1.4-2.84-2-6.51,0-9,1.44-1.83,3.87-2.54,6.16-3,9.28-1.63,18.94.19,27.63,3.87A98.89,98.89,0,0,1,122,252.09C127.4,256.13,132.19,261,137.58,265Z"/><path class="cls-2" d="M112.39,185.69,106,150.34l29.68-3.72c2,4.35,3.78,11,3.89,20.5a116.32,116.32,0,0,1-1.62,19.41c-.49,3.52-4.05,17.94-6.7,22s-7.63,5.19-14.41,9.34-17.16,9.84-17.16,9.84a13.77,13.77,0,0,1-6-9.44s4.76-5.79,6.32-7.78a77.91,77.91,0,0,1,9.31-9.5,33.37,33.37,0,0,1,5.37-3.29Z"/><path class="cls-3" d="M129.7,170.8s6.94-4,8-10c-2.88,3.69-12.32,8.77-12.32,8.77l-13.33,14.2h0l.34,1.87,2.24,12a33.37,33.37,0,0,0-5.37,3.29c-.41.31-.89.72-1.4,1.18,1.65,3.31,4.82,10.46,4.82,10.46a50.09,50.09,0,0,0,0,7.68c1.43-.84,2.83-1.67,4.1-2.44,5.36-3.28,9.58-4.68,12.43-7.13a14.27,14.27,0,0,0,2-2.21,39.58,39.58,0,0,0,3.32-8.35C133,189.27,129.7,170.8,129.7,170.8Z"/><path class="cls-4" d="M81,229.29c-.94.91-1.86,3.45-2.3,5.09l2.19,4.31,2.84-2.57S81,232.55,81,229.29Z"/><path d="M80.9,238.69l3.84.48s.7-.33.07-1.68-1.07-1.37-1.07-1.37Z"/><path class="cls-5" d="M81,229.29a7.5,7.5,0,0,0-.84,1.68c-.08.49.19,1.26.91,2.77s2.09,2.5,2.19,4.53-.71,4.91-.32,7.78a9.34,9.34,0,0,0,6.54,7.66c4,1.1,7.24.14,8.61-1,.73-1.73.05-1.58-1.95-3.39S81,229.29,81,229.29Z"/><path class="cls-6" d="M90.53,220.75a23.13,23.13,0,0,1-5,4.6c-2,1.28-3.57,2-4.57,3.94-.26,1.46.49,3.33,1.59,5,1.4,2.17,1.77,3.09,1.34,6-.51,3.48-1.4,7.31,2.9,10.76,3.82,3.07,10.17,2.39,11.88,0,2.27-4.54-3-3.78-3.35-9-.17-2.87-.23-6,1-8.7A10.13,10.13,0,0,1,98,231c.6-.69,6.42-4.47,5.73-5.52l-1.54.72c-1,.09-3.18-1-4.63-2.57-3.49-3.81-3.24-6.12-3.24-6.12l.58-.79C94.6,216.14,93.64,217.29,90.53,220.75Z"/><path class="cls-7" d="M90.53,220.75a23.13,23.13,0,0,1-5,4.6c-2,1.28-3.57,2-4.57,3.94-.26,1.46.49,3.33,1.59,5,1.4,2.17,1.77,3.09,1.34,6-.51,3.48-1.4,7.31,2.9,10.76,3.82,3.07,10.17,2.39,11.88,0,2.27-4.54-3-3.78-3.35-9-.17-2.87-.23-6,1-8.7A10.13,10.13,0,0,1,98,231c.6-.69,6.42-4.47,5.73-5.52l-1.54.72c-1,.09-3.18-1-4.63-2.57-3.49-3.81-3.24-6.12-3.24-6.12l.58-.79C94.6,216.14,93.64,217.29,90.53,220.75Z"/><path class="cls-8" d="M86.34,224.83c-.24.17-.49.35-.76.52-2,1.28-3.57,2-4.57,3.94-.26,1.46.49,3.33,1.59,5a9.82,9.82,0,0,1,1.31,2.55C86.45,234,88.42,229.34,86.34,224.83Z"/><path class="cls-8" d="M86.34,224.83c-.24.17-.49.35-.76.52-2,1.28-3.57,2-4.57,3.94-.26,1.46.49,3.33,1.59,5a9.82,9.82,0,0,1,1.31,2.55C86.45,234,88.42,229.34,86.34,224.83Z"/><path d="M95.68,244.19a.09.09,0,0,1-.08,0c-1.39-1.6-5.26-1.89-7.33-1a.11.11,0,0,1-.13,0,.1.1,0,0,1,0-.13,7.92,7.92,0,0,1,4.59-1.73,29.51,29.51,0,0,0-4.16-2,.11.11,0,0,1-.07-.1.11.11,0,0,1,.06-.09A18.17,18.17,0,0,1,92.75,238a14.23,14.23,0,0,0-3.61-2.1.13.13,0,0,1-.07-.09.1.1,0,0,1,.06-.09,13.15,13.15,0,0,1,4.2-1,18.08,18.08,0,0,0-3.16-2.32.16.16,0,0,1,0-.11.11.11,0,0,1,.08-.08c1.11-.22,2.14-.35,3.13-.47l1.56-.21a17.6,17.6,0,0,0-2.63-3.91.12.12,0,0,1,0-.13.11.11,0,0,1,.12,0,17.93,17.93,0,0,0,4.37,1,14.07,14.07,0,0,1-2.1-4.54.1.1,0,0,1,.06-.11.11.11,0,0,1,.12,0c2.37,2.76,5.3,4.3,6.55,4a.11.11,0,0,1,.12.06.11.11,0,0,1,0,.13,7.46,7.46,0,0,1-4.3.69c.7,1.06,1.28,1.8,1.3,1.82a.11.11,0,0,1,0,.08.13.13,0,0,1,0,.07,9.84,9.84,0,0,1-3.23,1,7.61,7.61,0,0,1,.79,3.13.09.09,0,0,1,0,.08.11.11,0,0,1-.08,0,8.9,8.9,0,0,0-2.08,0,7.13,7.13,0,0,1,1.7,2.83.09.09,0,0,1,0,.09.14.14,0,0,1-.08,0s-1,.08-2.17.26a8.5,8.5,0,0,1,2.31,3.21.09.09,0,0,1,0,.1.12.12,0,0,1-.1,0,11.9,11.9,0,0,0-2-.08,5.2,5.2,0,0,1,2.38,2.64.11.11,0,0,1,0,.12Zm-4.61-1.73a7.18,7.18,0,0,1,4.33,1.22A6.13,6.13,0,0,0,93,241.43a8.66,8.66,0,0,0-4.27,1.33A8.32,8.32,0,0,1,91.07,242.46ZM94,241.2c.6,0,1.07,0,1.31.06A8.45,8.45,0,0,0,93,238.18a20.1,20.1,0,0,0-4.06,1,27.58,27.58,0,0,1,4.21,2.06Zm-4.54-5.39A14.41,14.41,0,0,1,93,238c1.06-.16,1.92-.25,2.24-.28a7,7,0,0,0-1.74-2.75A13.94,13.94,0,0,0,89.43,235.81Zm1.07-3.43a17.08,17.08,0,0,1,3.1,2.34,10.43,10.43,0,0,1,2.18,0,7.92,7.92,0,0,0-.8-3l-1.62.22C92.44,232.07,91.5,232.19,90.5,232.38Zm2.17-4.59a18.1,18.1,0,0,1,2.44,3.72,9.84,9.84,0,0,0,3.1-.91c-.19-.25-.72-.95-1.32-1.87A17.38,17.38,0,0,1,92.67,227.79Zm4.33.74a9.15,9.15,0,0,0,3.84-.42c-1.54-.1-4-1.66-5.92-3.8A16.08,16.08,0,0,0,97,228.53Z"/><path d="M96.12,230.05a.83.83,0,0,1-.88-.54,1,1,0,0,1,.15-.95c.49-.73,1.88-1.26,3.53-1.35a.13.13,0,0,1,.08,0,.08.08,0,0,1,0,.08A3.28,3.28,0,0,1,96.29,230Zm2.68-2.63a4.57,4.57,0,0,0-3.25,1.25.85.85,0,0,0-.12.78c.13.4.58.42.84.39A3.07,3.07,0,0,0,98.8,227.42Z"/><path d="M99,231.44h0a1.17,1.17,0,0,1-1-.86,3.09,3.09,0,0,1,.91-3.34.09.09,0,0,1,.13,0,3.08,3.08,0,0,1,1,3.42A1.15,1.15,0,0,1,99,231.44Zm0-4a2.87,2.87,0,0,0-.8,3.06,1,1,0,0,0,.81.73h0c.32,0,.6-.24.79-.67A2.87,2.87,0,0,0,98.93,227.45Z"/><path class="cls-8" d="M86.84,251.05c3.82,3.07,10.17,2.39,11.88,0,1.6-3.2-.56-3.77-2.09-5.64h0s-1.22-.9-5.65-.52c-4,.34-5.39,3.05-5.41,4.91A9.81,9.81,0,0,0,86.84,251.05Z"/><path class="cls-8" d="M86.84,251.05c3.82,3.07,10.17,2.39,11.88,0,1.6-3.2-.56-3.77-2.09-5.64h0s-1.22-.9-5.65-.52c-4,.34-5.39,3.05-5.41,4.91A9.81,9.81,0,0,0,86.84,251.05Z"/><path class="cls-2" d="M105.24,192c-2.88-6.69-4.84-11.37-6.23-17.42s-.33-13.7.95-17.73,6.24-12,6.24-12l30.27,1.85c1.11,4.32,2,9.25,2.37,11.2-2.08,8.78-12.38,11.29-12.38,11.29l2.76,13.56c1.75,11.58,4.21,18.24,4.6,31.24s.08,44.94.08,44.94a12.58,12.58,0,0,1-11.56-.25,193,193,0,0,0-4-19.75c-2.34-8.42-4.65-17.82-3.82-26.32C114.56,212.53,108.12,198.63,105.24,192Z"/><path class="cls-9" d="M121.14,270.09a16.54,16.54,0,0,0,.73,4s2.55,1.48,4.29,2.35v-6.55Z"/><path d="M126.16,276.41l5.13-1.47s-1.11-2.95-2.4-4a4.72,4.72,0,0,0-2.73-1.06Z"/><path class="cls-5" d="M148.54,279.09c.24.67-.51,1.83-2.82,2.5-3.28,1-8.56,1.08-12.32-1.64a28.15,28.15,0,0,1-4.33-4c-1.59-1.58-1.79-2-4.28-2.71S122,271.89,121.3,271c0,0-.68-2.51.63-3.32S148.54,279.09,148.54,279.09Z"/><path class="cls-7" d="M121.14,270.09c.58,1.07,2.86,2,5,2.81,2.87,1.06,3,2.14,6.7,5.31a13,13,0,0,0,8.82,3c2.93-.06,5.71-1,6.86-2.11,1.08-2,1.05-3.52-1.63-5.31-4.13-2.76-8.17-6-9.72-8.15s-2-3.69-2.35-7.36c-.08-1-.06-3.46-.16-4.45-.18-1.57.09-2.75-.72-2.78v.84c-1.08,1-2.42,1.72-6.79,2-2,.13-4.59-.21-5.76-1.11l-.21-1.14c-1.22.23-.83,1.58-.43,3.72.34,1.9,1.5,6.15.87,8.31C121.16,265.3,120.43,268.25,121.14,270.09Z"/><path class="cls-10" d="M126.42,273c1.23-5.86-2-8.71-4.73-9.58h0l-.06.27c-.47,1.61-1.2,4.56-.49,6.4.58,1.07,2.86,2,5,2.81Z"/><path class="cls-8" d="M126.42,273c1.23-5.86-2-8.71-4.73-9.58h0l-.06.27c-.47,1.61-1.2,4.56-.49,6.4.58,1.07,2.86,2,5,2.81Z"/><path class="cls-8" d="M134.76,279.54a8,8,0,0,1,5.82-6.44c2.61-.67,4.41-1,6.84.68,1.17.82,2.86,3.36,1.16,5.44C146.85,280.93,139.1,282.77,134.76,279.54Z"/><path class="cls-8" d="M134.76,279.54a8,8,0,0,1,5.82-6.44c2.61-.67,4.41-1,6.84.68,1.17.82,2.86,3.36,1.16,5.44C146.85,280.93,139.1,282.77,134.76,279.54Z"/><path d="M135.16,272.86l0,0a.1.1,0,0,1-.05-.12,7.94,7.94,0,0,1,2.76-3.48,24.07,24.07,0,0,0-5-.05.1.1,0,0,1-.1-.05.09.09,0,0,1,0-.11,9.88,9.88,0,0,1,2.26-2,28.5,28.5,0,0,0-4.32,0,.1.1,0,0,1-.1-.05.11.11,0,0,1,0-.11,20.48,20.48,0,0,1,2.79-3,29,29,0,0,0-4.07-.44.1.1,0,0,1-.09-.07.11.11,0,0,1,0-.11l1.4-1.09c.58-.44,1.15-.87,1.69-1.32a21.2,21.2,0,0,0-4-.79.1.1,0,0,1-.09-.08.1.1,0,0,1,0-.11,20.15,20.15,0,0,0,3.44-2.37,42.51,42.51,0,0,1-5.12-1.72.1.1,0,0,1-.06-.12c0-.05.06-.07.11-.08,3.63.28,7-.77,8-1.63a.11.11,0,0,1,.13,0,.11.11,0,0,1,0,.12,10.53,10.53,0,0,1-2.66,3.34c1.59.44,2.83.74,2.86.75a.09.09,0,0,1,.07.06.1.1,0,0,1,0,.09,12.57,12.57,0,0,1-2.32,2.47,17.39,17.39,0,0,1,2.94,1.28.1.1,0,0,1,0,.08.1.1,0,0,1,0,.09c-.7.54-1.32,1.05-1.89,1.54a7.26,7.26,0,0,1,3.77,1.92.1.1,0,0,1,0,.1.11.11,0,0,1-.06.07,16.62,16.62,0,0,0-1.95,1,9.48,9.48,0,0,1,4.18,1.26.11.11,0,0,1,0,.09.13.13,0,0,1-.07.09,7.46,7.46,0,0,0-1.4.74,9.13,9.13,0,0,1,4.64,1.76.09.09,0,0,1,0,.12.09.09,0,0,1-.12,0c-1.91-.77-6.18,0-7.64,1.79A.12.12,0,0,1,135.16,272.86Zm3-3.59a8,8,0,0,0-2.64,3,9.18,9.18,0,0,1,7-1.61A11,11,0,0,0,138.11,269.27Zm-2.92-.39a20.5,20.5,0,0,1,2.87.19,8.37,8.37,0,0,1,1.44-.82,10.46,10.46,0,0,0-4.19-1.15A11,11,0,0,0,133,269Q134.19,268.88,135.19,268.88Zm-2.12-2.08a21.5,21.5,0,0,1,2.19.1,20,20,0,0,1,2.06-1.12,7.27,7.27,0,0,0-3.71-1.79,20.07,20.07,0,0,0-2.74,2.89C131.63,266.83,132.37,266.8,133.07,266.8Zm-3.5-3.49a28,28,0,0,1,4,.46c.56-.5,1.19-1,1.88-1.56a16.72,16.72,0,0,0-2.89-1.22c-.57.47-1.17.93-1.79,1.41Zm-.91-3.36a21.36,21.36,0,0,1,3.85.81,13.28,13.28,0,0,0,2.3-2.39c-.39-.1-1.5-.37-2.85-.75A19.67,19.67,0,0,1,128.66,260Zm-1.44-4.07c1.35.54,3.16,1.09,4.69,1.52a12.08,12.08,0,0,0,2.52-3A14.38,14.38,0,0,1,127.22,255.88Z"/><path d="M129.91,259.53a.76.76,0,0,1-.43-.14,1,1,0,0,1-.43-.87c0-.88.79-2.12,2.08-3.15a.08.08,0,0,1,.08,0,.13.13,0,0,1,.07.05,3.3,3.3,0,0,1-.63,3.81A1.18,1.18,0,0,1,129.91,259.53Zm1.25-3.92a4.53,4.53,0,0,0-1.91,2.91.85.85,0,0,0,.35.7c.34.25.72,0,.91-.17A3.06,3.06,0,0,0,131.16,255.61Z"/><path d="M133.1,259a1.42,1.42,0,0,1-.8-.27,3.08,3.08,0,0,1-1.21-3.24.11.11,0,0,1,.1-.09h0a3.06,3.06,0,0,1,2.77,2.22,1.11,1.11,0,0,1-.35,1.23A.92.92,0,0,1,133.1,259Zm-1.82-3.4a2.88,2.88,0,0,0,1.14,3,1,1,0,0,0,1.08.13.94.94,0,0,0,.26-1A2.88,2.88,0,0,0,131.28,255.55Z"/></g><g id="Top"><path class="cls-5" d="M128.17,110.44a16.54,16.54,0,0,0,11.28-5.66c3.12-4.61,5.87-11.54,1.6-16.09C141.91,83,137.21,78,130.27,76.1c-3.19-.9-6.48-2.14-9.83-1.42-2.47.29-5.56,1.8-5.35,4.66-1.85-1.15-4.72,0-4.67,2.32,0,1.06.75,2,1,3,.43,1.5-1.22,2.28-1.73.6-.79,1.11.61,2.65,1.64,3.09a3.27,3.27,0,0,0,1.83.22c.46-.07.86-.4,1.33-.16a2.07,2.07,0,0,1,.38.28.41.41,0,0,1,.16.42,2.23,2.23,0,0,1-.78,1.13,4.06,4.06,0,0,1-2.75.85c-1.57-.09-3-.87-4.75-1.36-2.19-.61-5.09-.72-6.26,2a3.17,3.17,0,0,1,2.57-.62,9.45,9.45,0,0,1,2.56.92,4.55,4.55,0,0,0-3.81.51,11.72,11.72,0,0,1-3.66,1.49,7.7,7.7,0,0,1-8-4.07,17.1,17.1,0,0,0,.56,7.46c1.07,3.48,7.61,13.31,24.24,15C119.14,112.87,126.65,110.52,128.17,110.44Z"/><path class="cls-11" d="M114.83,109.63c-5.18-.61-25.52-8.85-25.52-8.85s-8.4-15.93-9.85-19.58C78.34,78.39,76,75,72.69,74.71c-2.13-.21-5.55-.8-5.16,1.66,0,.33.22.59.26.9.33,1-.41,1.76-.56,2.62s1.1,1.46,1.14,2.34c0,.56-.4,1-.58,1.57a1.84,1.84,0,0,0,.2,1.53c.28.44.75.78.83,1.29a2.39,2.39,0,0,0,.07.74c.27.76,1.42,1,2.16,1.36,1.28.57,2.84.82,3.44,2.24.69,1.65,3.84,12.3,5,15.38,1,2.66,1.42,3.68,4.71,4.84,2.13.76,11,4.69,17,7.37a5.62,5.62,0,0,1,3.42,4.53Z"/><path class="cls-12" d="M115,109.43c-.39-.39-1.39-2.27-3.29-2.62s-4.93.28-10.51-1.76-11.7-4.43-11.7-4.43L84.07,90.2s-.32,2.5-3.55,4-4.94.66-4.94.66,2.26,7.25,3.15,9.89,1.3,5.08,4,6.14S96.9,117,99.24,118s4.34,1.4,5.26,5.34Z"/><path class="cls-13" d="M115,109.43c-.39-.39-1.39-2.27-3.29-2.62s-4.93.28-10.51-1.76-11.7-4.43-11.7-4.43L84.07,90.2s-.32,2.5-3.55,4-4.94.66-4.94.66,2.26,7.25,3.15,9.89,1.3,5.08,4,6.14S96.9,117,99.24,118s4.34,1.4,5.26,5.34Z"/><path class="cls-14" d="M77.5,84.21a6.61,6.61,0,0,0-.2-1.3,1.27,1.27,0,0,0-.39-.58.74.74,0,0,0-.59-.12,5.15,5.15,0,0,0-.09-1,.83.83,0,0,0-.66-.77l-.76-1h0L71,88.51h0a14.69,14.69,0,0,0,1.71.53,2.6,2.6,0,0,0,1.78-.1A5.19,5.19,0,0,0,76.07,88c.48-.36.94-.74,1.4-1.13l0,0v-.05A25.25,25.25,0,0,0,77.5,84.21Z"/><path class="cls-15" d="M119.22,20.2c-6.15,2-11.52,8-14.15,14.05-12.91.91-28.48,7.25-42.57,16.68L45.84,8.41C69.81.79,94.15,1.94,119.22,20.2Z"/><path class="cls-16" d="M105.07,34.25c-12.91.91-28.48,7.25-42.57,16.68L45.84,8.41C62.67,5.49,88.13,14.81,105.07,34.25Z"/><path class="cls-17" d="M119.22,20.2C94.15,1.94,69.81.79,45.84,8.41c16.83-2.92,42.29,6.4,59.23,25.84C107.7,28.21,113.07,22.17,119.22,20.2Z"/><path class="cls-15" d="M0,66.91c5.84-2.73,13.89-1.94,19.92.7,10.1-8.1,25.83-14,42.58-16.68L45.84,8.41C23.07,19.11,6,36.48,0,66.91Z"/><path class="cls-18" d="M19.92,67.61c10.1-8.1,25.83-14,42.58-16.68L45.84,8.41C31.5,17.71,19.15,41.84,19.92,67.61Z"/><path class="cls-19" d="M0,66.91c6-30.43,23.07-47.8,45.84-58.5-14.34,9.3-26.69,33.43-25.92,59.2C13.89,65,5.84,64.18,0,66.91Z"/><path class="cls-20" d="M49.46,17.67l-.32.07-.37.07-.33,0c-.49,0-.38-.22-.52-.44-.18-.49-.44-1.18-.76-2-.63-1.67-1.42-3.91-2.15-6.17C44.64,8.09,44.3,7,44,5.88c-.15-.54-.32-1.06-.44-1.55s-.25-1-.37-1.4-.2-.84-.28-1.19-.16-.67-.21-.93C42.59.3,42.53,0,42.53,0s.17.25.43.71c.14.22.3.5.48.82s.39.67.6,1.07l.68,1.27c.25.45.48.94.73,1.44.51,1,1,2.06,1.53,3.14,1,2.15,1.94,4.34,2.62,6,.33.83.6,1.52.8,2,.06.25.31.37-.08.68-.06.06-.18.13-.26.2l-.33.2Z"/><path class="cls-21" d="M87.43,121.34h0l-5.36-13.9,4.15-1.59,5.35,13.89a1.06,1.06,0,0,1-.25,1.15A3.45,3.45,0,0,1,88.39,122,1.07,1.07,0,0,1,87.43,121.34Z"/><path class="cls-20" d="M85.29,105.23a3.47,3.47,0,0,0-2.94,1.13c-.63.78-.33,1.54.66,1.7a3.48,3.48,0,0,0,2.93-1.13C86.57,106.14,86.28,105.39,85.29,105.23Z"/><path d="M85.27,106.33,49,13.66a1.23,1.23,0,0,0-1.6-.7,1.25,1.25,0,0,0-.71,1.6L83,107.24C83.64,107.66,85.18,107,85.27,106.33Z"/><path class="cls-22" d="M55.08,32a67.71,67.71,0,0,0-34.9,18.66C9.35,53.93,3.12,59.61,0,66.91,4.89,36.1,23.77,17.06,45.84,8.41S94.7.91,119.22,20.2C112,17,103.53,17,93.35,22A67.73,67.73,0,0,0,55.08,32Z"/><path class="cls-23" d="M93.36,22A67.74,67.74,0,0,0,55.08,32L45.84,8.41C71.05-1.46,93.36,22,93.36,22Z"/><path class="cls-24" d="M119.22,20.2C94.7.91,67.9-.23,45.84,8.41,71.05-1.46,93.35,22,93.35,22,103.53,17,112,17,119.22,20.2Z"/><path class="cls-25" d="M20.18,50.65A67.71,67.71,0,0,1,55.08,32L45.84,8.41C20.63,18.29,20.18,50.65,20.18,50.65Z"/><path class="cls-26" d="M0,66.91C4.89,36.1,23.77,17.06,45.84,8.41,20.63,18.29,20.18,50.65,20.18,50.65,9.35,53.93,3.12,59.61,0,66.91Z"/><path class="cls-11" d="M70.16,74.5c-1.65-.06-3.67.31-4,1.57s.64,1.84.45,2.27-1.06,1.09-.51,2.27.76,1.3.54,1.74a2,2,0,0,0,.08,2.17c1,1.19.55,1.89,1.12,2.7s4,1.58,4.8,1.58,2.65-1.51,3.51-2.1.67-2.07.78-2.74-.27-1.56-1.16-1.2c0-.74.35-2.11-1.1-1.81.19-.65.43-2.33-.67-2.18s-2.71-1.29-2.71-1.29Z"/><path class="cls-11" d="M80.15,82.76c-.69-1.56-.92-4.77-1.62-6.05s-1.33-2-3-1.94-3,1.75-4.75,3.16c-1.16.93-2.57,1.36-2.16,2.23s2.2,1.54,3.85.73a10.62,10.62,0,0,0,2.33-1.45Z"/><path class="cls-14" d="M75.54,74.77a3.4,3.4,0,0,0-1.82.76,15.9,15.9,0,0,0-1.53,1.3c-.5.46-1,.92-1.54,1.34s-1.15.74-1.64,1.16c-.24.2-.41.47-.29.74a1.45,1.45,0,0,0,.63.67,3.22,3.22,0,0,0,1.88.42,4.62,4.62,0,0,0,1.87-.66,10.12,10.12,0,0,0,1.71-1.06,10.75,10.75,0,0,1-1.65,1.18,4.8,4.8,0,0,1-1.91.71,3.43,3.43,0,0,1-2-.4,1.67,1.67,0,0,1-.74-.77.9.9,0,0,1,.34-1c.54-.45,1.15-.73,1.69-1.13s1-.85,1.54-1.29a17.64,17.64,0,0,1,1.57-1.29A3.48,3.48,0,0,1,75.54,74.77Z"/><path class="cls-14" d="M75.81,82.76a4.88,4.88,0,0,1-.51,2.35,3.58,3.58,0,0,1-1,.72,9.89,9.89,0,0,1-1.08.54,2.55,2.55,0,0,1-.59.19,1.45,1.45,0,0,1-.63,0c-.39-.08-.78-.16-1.17-.27-.77-.2-1.53-.43-2.28-.68l2.33.48,1.16.24a1.52,1.52,0,0,0,.55,0,3.18,3.18,0,0,0,.54-.19,7.6,7.6,0,0,0,2-1.14,2.92,2.92,0,0,0,.43-1.06A11,11,0,0,0,75.81,82.76Z"/><path class="cls-14" d="M74.71,81a9.17,9.17,0,0,1-.16,1,1.38,1.38,0,0,1-.68.83,9.42,9.42,0,0,1-1.89.91,1.14,1.14,0,0,1-.58,0l-.5-.14c-.33-.1-.67-.2-1-.32-.66-.23-1.3-.47-2-.73.68.17,1.34.35,2,.54l1,.28.5.13a.77.77,0,0,0,.45,0,11.37,11.37,0,0,0,1.86-.83C74.44,82.38,74.54,81.6,74.71,81Z"/><path class="cls-14" d="M68.3,76.18c.79-.08,2.86.76,3,1.3l-.94-2.39s.31.75-.16.93S69.17,75.71,68.3,76.18Z"/><path class="cls-14" d="M67.88,87.22a4.11,4.11,0,0,0,1.58.78c.56.17,1.13.33,1.71.47a5.48,5.48,0,0,0,1.72.21,5.9,5.9,0,0,0,1.53-.84c.48-.34,1-.7,1.43-1.06a1.68,1.68,0,0,0,.61-.57,2.1,2.1,0,0,0,.26-.8c.09-.55.09-1.19.15-1.75a1,1,0,0,0-.29-.74.66.66,0,0,0-.73-.07l-.13.05v-.14a5.22,5.22,0,0,0,0-1.31.58.58,0,0,0-.37-.43,1.48,1.48,0,0,0-.63,0l-.1,0,0-.1a4.17,4.17,0,0,0,.18-1.32,1.22,1.22,0,0,0-.19-.62.62.62,0,0,0-.6-.22.61.61,0,0,1,.62.2,1.22,1.22,0,0,1,.24.64A3.94,3.94,0,0,1,74.77,81l-.07-.09a1.61,1.61,0,0,1,.69,0,.73.73,0,0,1,.48.53,5.12,5.12,0,0,1,0,1.35l-.12-.08a.84.84,0,0,1,.93.1,1.24,1.24,0,0,1,.38.87c-.06.62,0,1.18-.12,1.8a2.59,2.59,0,0,1-.29.89A2.06,2.06,0,0,1,76,87c-.49.34-1,.7-1.46,1a6,6,0,0,1-1.61.85,5.28,5.28,0,0,1-1.79-.25,12.54,12.54,0,0,1-1.71-.53A4.13,4.13,0,0,1,67.88,87.22Z"/><path class="cls-27" d="M104.67,134.28a11.52,11.52,0,0,1-2-13.26C106,114.3,115,109.43,115,109.43s.63.1,6.32,0c4.5-.06,5.61,0,8.17.57,2.18.53,9.68,2.88,9.68,2.88a14.87,14.87,0,0,0-2.41,9.58c.88,7.06,5.28,9,5.28,9s-5,8-4.8,11.58c.31,4.52,1.36,7.77,2.31,11.89-6.35,6.82-32.4,8.2-38.57.32.23-2.18,3.56-10.77,3.87-13.09A22.49,22.49,0,0,0,104.67,134.28Z"/><path class="cls-7" d="M130.7,110l-.06.79a20.11,20.11,0,0,1-4.56,7.53c-3.73,4-11.74,8.3-11.74,8.3s-2.1-11.23,5-16.53v-1.25a11.49,11.49,0,0,1-4.78,0s-4.78,2.57-11,9.79-.81,14.06.74,15.9c.17,2.61.52,7.65.52,7.65-2.06,5.16-9.29,12.24-17.92,15.78a44.73,44.73,0,0,1-21,2.52c0,11.71,8.33,23,33.82,31.3a89.84,89.84,0,0,0,10-5.94,52.14,52.14,0,0,0,17.08-19.14L131.42,191s6.06-2.2,8.13-5.29a128.14,128.14,0,0,0,1-22.38c-.59-11.41-3-17.68-2.87-21.27s5.48-12.45,5.48-12.45l-4.44-16.83Z"/><path class="cls-28" d="M126.29,159.47a1.38,1.38,0,1,1-1.38-1.38A1.38,1.38,0,0,1,126.29,159.47Z"/><circle class="cls-28" cx="122.15" cy="149.27" r="1.38"/><path class="cls-28" d="M118.16,156.62a1.38,1.38,0,1,1-1.38-1.38A1.37,1.37,0,0,1,118.16,156.62Z"/><path class="cls-29" d="M130.84,108.25a5.69,5.69,0,0,0,1.6,1.78c1,.63,2.39,1.48,2.39,1.48s-5,11.27-7.53,12.74-8.81,1.67-8.81,1.67a10.41,10.41,0,0,1,0,2.75c-.24.44-3.33,1.67-3.33,1.67l-1.22-3.69a67,67,0,0,0,8.1-5.47c5-3.94,8.6-10.36,8.6-10.36Z"/><path class="cls-10" d="M130.84,108.25a5.69,5.69,0,0,0,1.6,1.78c1,.63,2.39,1.48,2.39,1.48s-5,11.27-7.53,12.74-8.81,1.67-8.81,1.67a10.41,10.41,0,0,1,0,2.75c-.24.44-3.33,1.67-3.33,1.67l-1.22-3.69a67,67,0,0,0,8.1-5.47c5-3.94,8.6-10.36,8.6-10.36Z"/><g class="cls-30"><path class="cls-29" d="M126.83,166.73c1.08-3.48,2.11-7.11,1.25-10.62a20.53,20.53,0,0,0-1.92-5,42.39,42.39,0,0,0-2.85-4.61,104.57,104.57,0,0,1-5.91-9.3,25.91,25.91,0,0,1-2-5.16,43.77,43.77,0,0,1-1-5.41,37.9,37.9,0,0,0,3.77,10.19c1.83,3.12,4,6.06,6.06,9.09s4,6.3,4.69,10a14,14,0,0,1-.18,5.58A33.34,33.34,0,0,1,126.83,166.73Z"/></g><path class="cls-2" d="M138.41,139.17c-3.25,4-23.62,8.24-34-2.84a52.57,52.57,0,0,1,0,7.41s4.72,5.53,15.7,5.92c12.36.43,18-3.4,18-3.4A23.1,23.1,0,0,1,138.41,139.17Z"/><g class="cls-30"><path d="M115.26,130.71s-1-9.06-.29-12.57a17,17,0,0,1,4.34-8V108a10.86,10.86,0,0,1-4.34,1c-4,4.53-6.82,9.09-7.88,12.48,0,1.11,1.92,1.72,4,2.33-1.83,2.38-2.74,2.94-.51,4.66A13.65,13.65,0,0,0,115.26,130.71Z"/><path class="cls-28" d="M115.26,130.71s-1-9.06-.29-12.57a17,17,0,0,1,4.34-8V108a10.86,10.86,0,0,1-4.34,1c-4,4.53-6.82,9.09-7.88,12.48,0,1.11,1.92,1.72,4,2.33-1.83,2.38-2.74,2.94-.51,4.66A13.65,13.65,0,0,0,115.26,130.71Z"/></g><path class="cls-11" d="M138.56,98.94A3.93,3.93,0,0,0,137,95.82a2.65,2.65,0,0,0-3.06-.14,7.43,7.43,0,0,0-1.09,1.39,1.72,1.72,0,0,1-1.48.8.36.36,0,0,1-.27-.15.46.46,0,0,1,.07-.42,3.27,3.27,0,0,0,.24-1.83c-.08-.62-.33-1.24-.41-1.85a6.06,6.06,0,0,1,.58-4c-6.79-1.52-11-6.81-11.56-8.56-1.43.54-4,2.09-6.14,10-2,7.54-1.13,11.24.7,12.86a8.76,8.76,0,0,0,4.77,2.27l0,3.9c-6.09,6.48,3.74,9.8,11.33.7l.67-8.34c.17,1,2.25,1.82,3.57,1.62a4.44,4.44,0,0,0,2.53-1.69A5.55,5.55,0,0,0,138.56,98.94Z"/><path class="cls-5" d="M124.2,92.3a1.2,1.2,0,0,0,.61,1.53,1.12,1.12,0,0,0,1.5-.58,1.2,1.2,0,0,0-.61-1.53A1.12,1.12,0,0,0,124.2,92.3Z"/><path class="cls-31" d="M120,99.35a1,1,0,0,0,.53,1.34,1,1,0,0,0,1.3-.5,1,1,0,0,0-.53-1.34A1,1,0,0,0,120,99.35Z"/><path class="cls-5" d="M116.53,87.75l2.71-.43a1.31,1.31,0,0,0-1.52-1.16A1.44,1.44,0,0,0,116.53,87.75Z"/><path class="cls-5" d="M125.68,89,128,91a1.46,1.46,0,0,0-.14-2.13A1.62,1.62,0,0,0,125.68,89Z"/><path class="cls-5" d="M116.6,90.38a1.15,1.15,0,0,0,.59,1.48,1.08,1.08,0,0,0,1.45-.55,1.15,1.15,0,0,0-.59-1.48A1.08,1.08,0,0,0,116.6,90.38Z"/><path class="cls-14" d="M119.36,106.22c4.41.73,9.07.62,11.28-3a6.09,6.09,0,0,1-3.86,3.85c-3,1.08-7.43.62-7.43.62Z"/><polygon class="cls-14" points="122.46 90.4 119.83 97.27 116.35 94.91 122.46 90.4"/><path class="cls-11" d="M139.14,112.91a44,44,0,0,0-6.06,6.91c-2.69,3.74-17.69,17-17.69,17s-15.22-9.09-18.61-12.33a7.94,7.94,0,0,1-2-3.07,14.9,14.9,0,0,1-.64-3,10.32,10.32,0,0,0-.61-2.58c-.07-.17-.09-.34-.15-.5a3.89,3.89,0,0,0-.43-.63q-.27-.36-.51-.72c-.34-.48-.67-1-1-1.46-.44-.68-.86-1.37-1.27-2.07a.91.91,0,0,0-.3-.37.62.62,0,0,0-.64.06,1.36,1.36,0,0,0-.41.56,4.12,4.12,0,0,0-.13,2.77,11.16,11.16,0,0,1,.57,4.15c-.07.8-1.16.63-2.32-.11a12.22,12.22,0,0,1-1.44-1.14l-1.82-4.8-.94.18A2.18,2.18,0,0,0,81,113.62a2.69,2.69,0,0,0,0,.75,11.27,11.27,0,0,1,.19,1.52,1.33,1.33,0,0,1,0,.28c-.11.71-.61,1.36-.48,2.06.09.52.52.94.62,1.46.17.82-.52,1.62-.43,2.46a7.1,7.1,0,0,0,.54,1.43c.15.47.15,1,.32,1.44l.19.51a1.28,1.28,0,0,0,.34.49,15.29,15.29,0,0,0,2.19,1.83c.75.54,1.54,1,2.32,1.51s1.53.93,2.27,1.43a15.18,15.18,0,0,1,2,1.62c.17.16.32.32.47.48,2.47,2.72,15.25,14.91,18.56,17,5.13,3.27,6.53,2.85,11.6-.69S137.3,137.28,140,134s6.24-7.85,5.08-13.68C144.07,115,141.48,113.62,139.14,112.91Z"/><path class="cls-32" d="M138.76,112.79c2.44.28,4.91-.17,7.18,1.58,1.15.89,2.78,4.11,2.17,7.68-.46,2.66-2.35,5.32-4.44,8.29-3.79,5.41-7,7.95-12.49,12.18-4.7,3.64-10,7.58-12.11,9.1-3.34,2.38-6.42.21-8.84-1.36s-9.62-8.12-9.62-8.12a12.21,12.21,0,0,1,1.31-4.93l4.9,2.48-4-4.33s1.61-3.37,4.32-4l8.24,5.2s13.92-12,16.24-15.2C133.79,117,137.19,113.7,138.76,112.79Z"/><path class="cls-10" d="M138.76,112.79c2.44.28,4.91-.17,7.18,1.58,1.15.89,2.78,4.11,2.17,7.68-.46,2.66-2.35,5.32-4.44,8.29-3.79,5.41-7,7.95-12.49,12.18-4.7,3.64-10,7.58-12.11,9.1-3.34,2.38-6.42.21-8.84-1.36s-9.62-8.12-9.62-8.12a12.21,12.21,0,0,1,1.31-4.93l4.9,2.48-4-4.33s1.61-3.37,4.32-4l8.24,5.2s13.92-12,16.24-15.2C133.79,117,137.19,113.7,138.76,112.79Z"/></g></g></g></g></svg>