<svg xmlns="http://www.w3.org/2000/svg" xmlns:xlink="http://www.w3.org/1999/xlink" viewBox="0 0 223.44 191.98"><defs><style>.cls-1{mask:url(#mask);}.cls-10,.cls-17,.cls-19,.cls-2,.cls-4,.cls-6,.cls-8{mix-blend-mode:multiply;}.cls-2{fill:url(#radial-gradient);}.cls-3{mask:url(#mask-2);}.cls-4{fill:url(#radial-gradient-2);}.cls-5{mask:url(#mask-3);}.cls-6{fill:url(#radial-gradient-3);}.cls-7{mask:url(#mask-4);}.cls-8{fill:url(#radial-gradient-4);}.cls-9{mask:url(#mask-5);}.cls-10{fill:url(#radial-gradient-5);}.cls-11{isolation:isolate;}.cls-12{fill:url(#radial-gradient-6);}.cls-13{fill:#ff8a00;}.cls-14{mask:url(#mask-6);}.cls-15{fill:url(#radial-gradient-7);}.cls-16{fill:url(#radial-gradient-8);}.cls-17{opacity:0.3;}.cls-18{fill:url(#radial-gradient-9);}.cls-19,.cls-20{opacity:0.4;}.cls-20{fill:#588ebc;}.cls-21{mask:url(#mask-7);}.cls-22,.cls-24,.cls-26,.cls-28{mix-blend-mode:screen;}.cls-22{fill:url(#radial-gradient-10);}.cls-23{mask:url(#mask-8);}.cls-24{fill:url(#radial-gradient-11);}.cls-25{mask:url(#mask-9);}.cls-26{fill:url(#radial-gradient-12);}.cls-27{mask:url(#mask-10);}.cls-28{fill:url(#radial-gradient-13);}.cls-29{filter:url(#luminosity-noclip-5);}.cls-30{filter:url(#luminosity-noclip-4);}.cls-31{filter:url(#luminosity-noclip-3);}.cls-32{filter:url(#luminosity-noclip-2);}.cls-33{filter:url(#luminosity-noclip);}</style><filter id="luminosity-noclip" x="35.18" y="-8409.33" width="87.27" height="32766" filterUnits="userSpaceOnUse" color-interpolation-filters="sRGB"><feFlood flood-color="#fff" result="bg"/><feBlend in="SourceGraphic" in2="bg"/></filter><mask id="mask" x="35.18" y="-8409.33" width="87.27" height="32766" maskUnits="userSpaceOnUse"><g class="cls-33"/></mask><radialGradient id="radial-gradient" cx="77.12" cy="45.87" fx="97.75682495473173" fy="14.504949240195124" r="60.87" gradientUnits="userSpaceOnUse"><stop offset="0.26" stop-color="#fff"/><stop offset="0.73" stop-color="#fff"/><stop offset="0.97"/></radialGradient><filter id="luminosity-noclip-2" x="113.15" y="-8409.33" width="57.99" height="32766" filterUnits="userSpaceOnUse" color-interpolation-filters="sRGB"><feFlood flood-color="#fff" result="bg"/><feBlend in="SourceGraphic" in2="bg"/></filter><mask id="mask-2" x="113.15" y="-8409.33" width="57.99" height="32766" maskUnits="userSpaceOnUse"><g class="cls-32"/></mask><radialGradient id="radial-gradient-2" cx="142.4" cy="53.03" r="75.3" gradientUnits="userSpaceOnUse"><stop offset="0.52" stop-color="#fff"/><stop offset="0.7" stop-color="#fff"/><stop offset="0.99"/></radialGradient><filter id="luminosity-noclip-3" x="73.26" y="-8409.33" width="56.5" height="32766" filterUnits="userSpaceOnUse" color-interpolation-filters="sRGB"><feFlood flood-color="#fff" result="bg"/><feBlend in="SourceGraphic" in2="bg"/></filter><mask id="mask-3" x="73.26" y="-8409.33" width="56.5" height="32766" maskUnits="userSpaceOnUse"><g class="cls-31"/></mask><radialGradient id="radial-gradient-3" cx="75.23" cy="107.89" r="53.99" gradientUnits="userSpaceOnUse"><stop offset="0.15" stop-color="#fff"/><stop offset="0.46" stop-color="#fff"/><stop offset="0.99"/></radialGradient><filter id="luminosity-noclip-4" x="43.82" y="-8409.33" width="31.91" height="32766" filterUnits="userSpaceOnUse" color-interpolation-filters="sRGB"><feFlood flood-color="#fff" result="bg"/><feBlend in="SourceGraphic" in2="bg"/></filter><mask id="mask-4" x="43.82" y="-8409.33" width="31.91" height="32766" maskUnits="userSpaceOnUse"><g class="cls-30"/></mask><radialGradient id="radial-gradient-4" cx="34.44" cy="133.76" r="39.64" xlink:href="#radial-gradient-3"/><filter id="luminosity-noclip-5" x="146.82" y="-8409.33" width="61.74" height="32766" filterUnits="userSpaceOnUse" color-interpolation-filters="sRGB"><feFlood flood-color="#fff" result="bg"/><feBlend in="SourceGraphic" in2="bg"/></filter><mask id="mask-5" x="146.82" y="-8409.33" width="61.74" height="32766" maskUnits="userSpaceOnUse"><g class="cls-29"/></mask><radialGradient id="radial-gradient-5" cx="186.28" cy="72.29" r="86.86" gradientUnits="userSpaceOnUse"><stop offset="0.55" stop-color="#fff"/><stop offset="0.74" stop-color="#fff"/><stop offset="0.98"/></radialGradient><radialGradient id="radial-gradient-6" cx="89.09" cy="91.21" fx="75.70562271859181" fy="71.93183038525142" r="65.2" gradientUnits="userSpaceOnUse"><stop offset="0.14" stop-color="#fff75d"/><stop offset="0.53" stop-color="#ffde00"/><stop offset="0.92" stop-color="#ff7d00"/></radialGradient><mask id="mask-6" x="35.18" y="40.6" width="87.27" height="58.63" maskUnits="userSpaceOnUse"><g class="cls-1"><path class="cls-2" d="M52.84,53.49c10.79-11,38.68-18.52,58.44-7.41s13.17,32.1-18.52,30.86S41.94,87.23,39.47,97.11,26.1,80.85,52.84,53.49Z"/></g></mask><radialGradient id="radial-gradient-7" cx="77.12" cy="45.87" fx="97.75682495473173" fy="14.504949240195124" r="60.87" gradientUnits="userSpaceOnUse"><stop offset="0.26" stop-color="#fff"/><stop offset="0.73" stop-color="#fff75d"/><stop offset="0.97" stop-color="#ffde00"/></radialGradient><radialGradient id="radial-gradient-8" cx="136.2" cy="-51.14" r="243.66" gradientUnits="userSpaceOnUse"><stop offset="0.16" stop-color="#fff"/><stop offset="0.69" stop-color="#acf2ff"/><stop offset="1" stop-color="#1bb3ff"/></radialGradient><radialGradient id="radial-gradient-9" cx="136.2" cy="-51.14" r="243.66" gradientUnits="userSpaceOnUse"><stop offset="0.39" stop-color="#acf2ff"/><stop offset="1" stop-color="#1bb3ff"/></radialGradient><mask id="mask-7" x="113.15" y="86.06" width="57.99" height="49.55" maskUnits="userSpaceOnUse"><g class="cls-3"><path class="cls-4" d="M123.36,94.82C110.5,107,113.44,121,113.44,121c4,25,58.07,16.13,57.7-12.53S136.23,82.7,123.36,94.82Z"/></g></mask><radialGradient id="radial-gradient-10" cx="142.4" cy="53.03" r="75.3" gradientUnits="userSpaceOnUse"><stop offset="0.52" stop-color="#fff"/><stop offset="0.7" stop-color="#acf2ff"/><stop offset="0.99" stop-color="#1bb3ff"/></radialGradient><mask id="mask-8" x="73.26" y="104.51" width="56.5" height="59.8" maskUnits="userSpaceOnUse"><g class="cls-5"><path class="cls-6" d="M109.78,121.17c-2.31-4.24-3.85-10.43-2.74-15.64-14.16-4.19-26.7,5.1-31.26,17.52-6.53,17.82,1.72,33.32,1.72,33.32,7.64,12.09,25,9,37.7-.2,7.06-5.11,12.73-12.11,14.57-19.47C121.6,133.81,114,129,109.78,121.17Z"/></g></mask><radialGradient id="radial-gradient-11" cx="75.23" cy="107.89" r="53.99" gradientUnits="userSpaceOnUse"><stop offset="0.15" stop-color="#fff"/><stop offset="0.46" stop-color="#acf2ff"/><stop offset="0.99" stop-color="#1bb3ff"/></radialGradient><mask id="mask-9" x="43.82" y="140.89" width="31.91" height="26.7" maskUnits="userSpaceOnUse"><g class="cls-7"><path class="cls-8" d="M73.44,151.72l-2.61-1.25a47.44,47.44,0,0,1-5.29-9.58s-21.44,1-21.72,14.89c-.28,13.5,25.67,11.74,25.67,11.74S80.32,154.24,73.44,151.72Z"/></g></mask><radialGradient id="radial-gradient-12" cx="34.44" cy="133.76" r="39.64" xlink:href="#radial-gradient-11"/><mask id="mask-10" x="146.82" y="127.2" width="61.74" height="41.36" maskUnits="userSpaceOnUse"><g class="cls-9"><path class="cls-10" d="M147.62,156.45c-4-8.95,7.62-24.18,26-28.21s30.9,4,34.49,17.47S194.65,169,177.63,168.55,151.89,166,147.62,156.45Z"/></g></mask><radialGradient id="radial-gradient-13" cx="186.28" cy="72.29" r="86.86" gradientUnits="userSpaceOnUse"><stop offset="0.55" stop-color="#fff"/><stop offset="0.74" stop-color="#acf2ff"/><stop offset="0.99" stop-color="#1bb3ff"/></radialGradient></defs><g class="cls-11"><g id="Calque_2" data-name="Calque 2"><g id="Layer_1" data-name="Layer 1"><path class="cls-12" d="M90.32,35.78a58.52,58.52,0,1,0,58.52,58.51A58.52,58.52,0,0,0,90.32,35.78Z"/><path class="cls-13" d="M90.32,35.78a58.52,58.52,0,1,0,58.52,58.51A58.52,58.52,0,0,0,90.32,35.78ZM88.26,148.93A54.64,54.64,0,1,1,142.9,94.29,54.64,54.64,0,0,1,88.26,148.93Z"/><path class="cls-13" d="M96.69,16.41a5.72,5.72,0,0,1-5.49,5.94h0a5.72,5.72,0,0,1-5.48-5.94V5.94A5.73,5.73,0,0,1,91.2,0h0a5.73,5.73,0,0,1,5.49,5.94Z"/><path class="cls-13" d="M96.69,176.47a5.72,5.72,0,0,1-5.49,5.93h0a5.72,5.72,0,0,1-5.48-5.93V166a5.72,5.72,0,0,1,5.48-5.94h0A5.72,5.72,0,0,1,96.69,166Z"/><path class="cls-13" d="M166,96.69a5.73,5.73,0,0,1-5.95-5.49h0A5.72,5.72,0,0,1,166,85.72h10.47a5.72,5.72,0,0,1,5.94,5.48h0a5.73,5.73,0,0,1-5.94,5.49Z"/><path class="cls-13" d="M5.94,96.69A5.73,5.73,0,0,1,0,91.2H0a5.72,5.72,0,0,1,5.94-5.48H16.41a5.72,5.72,0,0,1,5.94,5.48h0a5.73,5.73,0,0,1-5.94,5.49Z"/><path class="cls-13" d="M148,42.19a5.72,5.72,0,0,1-8.08.33h0a5.72,5.72,0,0,1,.32-8.08l7.41-7.4a5.71,5.71,0,0,1,8.07-.33h0a5.72,5.72,0,0,1-.32,8.08Z"/><path class="cls-13" d="M34.79,155.37a5.73,5.73,0,0,1-8.08.32h0a5.72,5.72,0,0,1,.32-8.07l7.41-7.41a5.73,5.73,0,0,1,8.08-.32h0a5.72,5.72,0,0,1-.33,8.08Z"/><path class="cls-13" d="M140.21,148a5.73,5.73,0,0,1-.32-8.08h0a5.73,5.73,0,0,1,8.08.32l7.4,7.41a5.72,5.72,0,0,1,.33,8.07h0a5.72,5.72,0,0,1-8.08-.32Z"/><path class="cls-13" d="M27,34.79a5.73,5.73,0,0,1-.32-8.08h0a5.72,5.72,0,0,1,8.08.33l7.4,7.4a5.72,5.72,0,0,1,.33,8.08h0a5.72,5.72,0,0,1-8.08-.33Z"/><g class="cls-14"><path class="cls-15" d="M52.84,53.49c10.79-11,38.68-18.52,58.44-7.41s13.17,32.1-18.52,30.86S41.94,87.23,39.47,97.11,26.1,80.85,52.84,53.49Z"/></g><path class="cls-16" d="M221.87,144.56c-4.88-17.75-24.32-26.65-40.53-23.82,4.16-7.54,2.24-17.79-.78-25.45-3.7-9.38-15.45-16.7-26.45-17.27a47.52,47.52,0,0,0-7.4.25,35,35,0,0,0-5.81.89c-7.49,1.61-14.81,4.79-20.17,9.24a37.09,37.09,0,0,0-9,11.88,35.67,35.67,0,0,0-21.53-.91c-14.64,4.22-25.8,20.43-23.71,35.45,0,.27,0,.54,0,.82A35.71,35.71,0,0,0,53.92,137a22,22,0,0,0-2.76.86,27.11,27.11,0,0,0-5.22,2.45c-8.55,5.46-14.92,16.67-11,26.9,5.1,13.22,19.31,15.45,31.89,17.12a68.73,68.73,0,0,0,22-.66,66.58,66.58,0,0,0,14.78,4.55c12.56,3,25.94,3.32,38.78,3.75a127,127,0,0,0,31.41-3,48,48,0,0,0,22.19-.43c12.53-3.37,25.52-14.28,26.95-28.34A33.34,33.34,0,0,0,221.87,144.56Z"/><g class="cls-17"><path class="cls-18" d="M221.87,144.56c-4.88-17.75-24.32-26.65-40.53-23.82,4.16-7.54,2.24-17.79-.78-25.45-3.7-9.38-15.45-16.7-26.45-17.27a47.52,47.52,0,0,0-7.4.25,35,35,0,0,0-5.81.89c-7.49,1.61-14.81,4.79-20.17,9.24a37.09,37.09,0,0,0-9,11.88,35.67,35.67,0,0,0-21.53-.91c-14.64,4.22-25.8,20.43-23.71,35.45,0,.27,0,.54,0,.82A35.71,35.71,0,0,0,53.92,137a22,22,0,0,0-2.76.86,27.11,27.11,0,0,0-5.22,2.45c-8.55,5.46-14.92,16.67-11,26.9,5.1,13.22,19.31,15.45,31.89,17.12a68.73,68.73,0,0,0,22-.66,66.58,66.58,0,0,0,14.78,4.55c12.56,3,25.94,3.32,38.78,3.75a127,127,0,0,0,31.41-3,48,48,0,0,0,22.19-.43c12.53-3.37,25.52-14.28,26.95-28.34A33.34,33.34,0,0,0,221.87,144.56ZM199.17,160c-13,15.38-44.77,14.47-54.32-3.87-.06,6.51,1.2,12.74,5.05,18.52,1.49,2.26-11.42,6-32.28,3.63-12.27-1.39-45.61-3.55-46.7-16.85a10.32,10.32,0,0,0-1.18,6.05c-26.93,8.17-43.39-22.06-4.2-26.54,1.35,2.91,2.36,7.28,5.71,10.86-1.11-11,.72-23.44,3.2-28.49,12.09-24.7,32.94-18.37,32.92-17.64-.17,6.89,1.17,10.75,4.7,15.29-2-11.93,2.74-18.52,10-24.31a40.06,40.06,0,0,1,28.3-8.83c8.87.8,18.16,4.93,20.06,14.58,2.38,12-2.88,22-10.32,30.63,11.1-6.29,23.74-11.33,35.14-2.73C203.78,136.7,206.26,151.59,199.17,160Z"/></g><g class="cls-19"><path class="cls-20" d="M221.87,144.56c-4.88-17.75-24.32-26.65-40.53-23.82,4.16-7.54,2.24-17.79-.78-25.45-3.7-9.38-15.45-16.7-26.45-17.27a47.52,47.52,0,0,0-7.4.25,35,35,0,0,0-5.81.89c-7.49,1.61-14.81,4.79-20.17,9.24a37.09,37.09,0,0,0-9,11.88,35.67,35.67,0,0,0-21.53-.91c-14.64,4.22-25.8,20.43-23.71,35.45,0,.27,0,.54,0,.82A35.71,35.71,0,0,0,53.92,137a22,22,0,0,0-2.76.86,27.11,27.11,0,0,0-5.22,2.45c-8.55,5.46-14.92,16.67-11,26.9,5.1,13.22,19.31,15.45,31.89,17.12a68.73,68.73,0,0,0,22-.66,66.58,66.58,0,0,0,14.78,4.55c12.56,3,25.94,3.32,38.78,3.75a127,127,0,0,0,31.41-3,48,48,0,0,0,22.19-.43c12.53-3.37,25.52-14.28,26.95-28.34A33.34,33.34,0,0,0,221.87,144.56Zm-7.46,24.09C210.91,177,203,183.08,193.14,185c-8.55,1.65-18.11,2.37-26.42-.88a25.44,25.44,0,0,1-8.57-5.58c-.52-.5-1.13-1.06-1.69-1.66a21.59,21.59,0,0,0,10.79,9.91,147.47,147.47,0,0,1-26.51,1.56c-9.23-.24-30.95-.73-43.29-5a50.77,50.77,0,0,1-13.65-6.2C79.18,174.15,74.1,170,71,165c2.09,7,6.85,12.19,12.86,15.91-1,.12-2,.25-3,.32a68.53,68.53,0,0,1-32.51-5.64c-11.69-5.44-12.41-20.18-4.31-28.92,4.89-5.28,14.51-7.77,22.78-7.19a30.27,30.27,0,0,0,3.36,10,49.49,49.49,0,0,1-.28-20,36.15,36.15,0,0,1,14-23.25,27.66,27.66,0,0,1,9.9-3.9,31.18,31.18,0,0,1,16.46,1.39c-1.35,4-1.67,8-.21,11.47-.64-5.47,1.63-11.26,5-15.57a39.76,39.76,0,0,1,39.6-17c13,2.25,17.19,7.13,21.36,13.48,4.68,7.09,4.66,17.91,1.47,25.58a27.14,27.14,0,0,0-12.45,8.39,35.06,35.06,0,0,1,14.46-4.88,40.75,40.75,0,0,1,16.9,1.37c6.64,2.15,14,7.15,17.42,13.75C215.54,143.33,220.11,157.66,214.41,168.65Z"/></g><g class="cls-21"><path class="cls-22" d="M123.36,94.82C110.5,107,113.44,121,113.44,121c4,25,58.07,16.13,57.7-12.53S136.23,82.7,123.36,94.82Z"/></g><g class="cls-23"><path class="cls-24" d="M109.78,121.17c-2.31-4.24-3.85-10.43-2.74-15.64-14.16-4.19-26.7,5.1-31.26,17.52-6.53,17.82,1.72,33.32,1.72,33.32,7.64,12.09,25,9,37.7-.2,7.06-5.11,12.73-12.11,14.57-19.47C121.6,133.81,114,129,109.78,121.17Z"/></g><g class="cls-25"><path class="cls-26" d="M73.44,151.72l-2.61-1.25a47.44,47.44,0,0,1-5.29-9.58s-21.44,1-21.72,14.89c-.28,13.5,25.67,11.74,25.67,11.74S80.32,154.24,73.44,151.72Z"/></g><g class="cls-27"><path class="cls-28" d="M147.62,156.45c-4-8.95,7.62-24.18,26-28.21s30.9,4,34.49,17.47S194.65,169,177.63,168.55,151.89,166,147.62,156.45Z"/></g></g></g></g></svg>