<svg xmlns="http://www.w3.org/2000/svg" xmlns:xlink="http://www.w3.org/1999/xlink" viewBox="0 0 230.1 190.14"><defs><style>.cls-1{mask:url(#mask);}.cls-10,.cls-12,.cls-14,.cls-16,.cls-19,.cls-2,.cls-21,.cls-4,.cls-43,.cls-46,.cls-48,.cls-50,.cls-52,.cls-54,.cls-56,.cls-58,.cls-6,.cls-60{mix-blend-mode:multiply;}.cls-2{fill:url(#radial-gradient);}.cls-3{mask:url(#mask-2);}.cls-4{fill:url(#radial-gradient-2);}.cls-5{mask:url(#mask-3);}.cls-6{fill:url(#radial-gradient-3);}.cls-7{mask:url(#mask-4);}.cls-24,.cls-26,.cls-28,.cls-30,.cls-35,.cls-37,.cls-39,.cls-41,.cls-8{mix-blend-mode:screen;}.cls-8{fill:url(#radial-gradient-4);}.cls-9{mask:url(#mask-5);}.cls-10{fill:url(#radial-gradient-5);}.cls-11{mask:url(#mask-6);}.cls-12{fill:url(#radial-gradient-6);}.cls-13{mask:url(#mask-7);}.cls-14{fill:url(#radial-gradient-7);}.cls-15{mask:url(#mask-8);}.cls-16{fill:url(#radial-gradient-8);}.cls-17{isolation:isolate;}.cls-18{fill:url(#radial-gradient-9);}.cls-19{opacity:0.3;}.cls-20{fill:url(#radial-gradient-10);}.cls-21,.cls-22,.cls-33{opacity:0.4;}.cls-22{fill:#6f8aa4;}.cls-23{mask:url(#mask-9);}.cls-24{fill:url(#radial-gradient-11);}.cls-25{mask:url(#mask-10);}.cls-26{fill:url(#radial-gradient-12);}.cls-27{mask:url(#mask-11);}.cls-28{fill:url(#radial-gradient-13);}.cls-29{mask:url(#mask-12);}.cls-30{fill:url(#radial-gradient-14);}.cls-31{fill:url(#radial-gradient-15);}.cls-32{fill:url(#radial-gradient-16);}.cls-33{fill:#39556e;}.cls-34{mask:url(#mask-13);}.cls-35{fill:url(#radial-gradient-17);}.cls-36{mask:url(#mask-14);}.cls-37{fill:url(#radial-gradient-18);}.cls-38{mask:url(#mask-15);}.cls-39{fill:url(#radial-gradient-19);}.cls-40{mask:url(#mask-16);}.cls-41{fill:url(#radial-gradient-20);}.cls-42{fill:url(#radial-gradient-21);}.cls-43,.cls-46,.cls-48,.cls-50,.cls-52,.cls-54,.cls-56,.cls-58,.cls-60{opacity:0.6;}.cls-43{fill:url(#radial-gradient-22);}.cls-44{fill:#fff;}.cls-45{fill:url(#radial-gradient-23);}.cls-46{fill:url(#radial-gradient-24);}.cls-47{fill:url(#radial-gradient-25);}.cls-48{fill:url(#radial-gradient-26);}.cls-49{fill:url(#radial-gradient-27);}.cls-50{fill:url(#radial-gradient-28);}.cls-51{fill:url(#radial-gradient-29);}.cls-52{fill:url(#radial-gradient-30);}.cls-53{fill:url(#radial-gradient-31);}.cls-54{fill:url(#radial-gradient-32);}.cls-55{fill:url(#radial-gradient-33);}.cls-56{fill:url(#radial-gradient-34);}.cls-57{fill:url(#radial-gradient-35);}.cls-58{fill:url(#radial-gradient-36);}.cls-59{fill:url(#radial-gradient-37);}.cls-60{fill:url(#radial-gradient-38);}.cls-61{filter:url(#luminosity-noclip-8);}.cls-62{filter:url(#luminosity-noclip-7);}.cls-63{filter:url(#luminosity-noclip-6);}.cls-64{filter:url(#luminosity-noclip-5);}.cls-65{filter:url(#luminosity-noclip-4);}.cls-66{filter:url(#luminosity-noclip-3);}.cls-67{filter:url(#luminosity-noclip-2);}.cls-68{filter:url(#luminosity-noclip);}</style><filter id="luminosity-noclip" x="92.13" y="-8065.55" width="49.93" height="32766" filterUnits="userSpaceOnUse" color-interpolation-filters="sRGB"><feFlood flood-color="#fff" result="bg"/><feBlend in="SourceGraphic" in2="bg"/></filter><mask id="mask" x="92.13" y="-8065.55" width="49.93" height="32766" maskUnits="userSpaceOnUse"><g class="cls-68"/></mask><radialGradient id="radial-gradient" cx="117.31" cy="-21.48" r="64.84" gradientUnits="userSpaceOnUse"><stop offset="0.52" stop-color="#fff"/><stop offset="0.7" stop-color="#fff"/><stop offset="0.97"/></radialGradient><filter id="luminosity-noclip-2" x="114.88" y="-8065.55" width="43.35" height="32766" filterUnits="userSpaceOnUse" color-interpolation-filters="sRGB"><feFlood flood-color="#fff" result="bg"/><feBlend in="SourceGraphic" in2="bg"/></filter><mask id="mask-2" x="114.88" y="-8065.55" width="43.35" height="32766" maskUnits="userSpaceOnUse"><g class="cls-67"/></mask><radialGradient id="radial-gradient-2" cx="116.39" cy="67.63" r="41.42" gradientUnits="userSpaceOnUse"><stop offset="0.15" stop-color="#fff"/><stop offset="0.46" stop-color="#fff"/><stop offset="0.99"/></radialGradient><filter id="luminosity-noclip-3" x="92.29" y="-8065.55" width="24.48" height="32766" filterUnits="userSpaceOnUse" color-interpolation-filters="sRGB"><feFlood flood-color="#fff" result="bg"/><feBlend in="SourceGraphic" in2="bg"/></filter><mask id="mask-3" x="92.29" y="-8065.55" width="24.48" height="32766" maskUnits="userSpaceOnUse"><g class="cls-66"/></mask><radialGradient id="radial-gradient-3" cx="85.09" cy="87.49" r="30.41" gradientUnits="userSpaceOnUse"><stop offset="0.15" stop-color="#fff"/><stop offset="0.46" stop-color="#fff"/><stop offset="1"/></radialGradient><filter id="luminosity-noclip-4" x="171.32" y="-8065.55" width="47.37" height="32766" filterUnits="userSpaceOnUse" color-interpolation-filters="sRGB"><feFlood flood-color="#fff" result="bg"/><feBlend in="SourceGraphic" in2="bg"/></filter><mask id="mask-4" x="171.32" y="-8065.55" width="47.37" height="32766" maskUnits="userSpaceOnUse"><g class="cls-65"/></mask><radialGradient id="radial-gradient-4" cx="201.6" cy="40.31" r="66.65" gradientUnits="userSpaceOnUse"><stop offset="0.55" stop-color="#fff"/><stop offset="0.74" stop-color="#fff"/><stop offset="0.99"/></radialGradient><filter id="luminosity-noclip-5" x="57.78" y="-8065.55" width="48.65" height="32766" filterUnits="userSpaceOnUse" color-interpolation-filters="sRGB"><feFlood flood-color="#fff" result="bg"/><feBlend in="SourceGraphic" in2="bg"/></filter><mask id="mask-5" x="57.78" y="-8065.55" width="48.65" height="32766" maskUnits="userSpaceOnUse"><g class="cls-64"/></mask><radialGradient id="radial-gradient-5" cx="59.48" cy="25.77" r="46.49" xlink:href="#radial-gradient-2"/><filter id="luminosity-noclip-6" x="32.42" y="-8065.55" width="27.48" height="32766" filterUnits="userSpaceOnUse" color-interpolation-filters="sRGB"><feFlood flood-color="#fff" result="bg"/><feBlend in="SourceGraphic" in2="bg"/></filter><mask id="mask-6" x="32.42" y="-8065.55" width="27.48" height="32766" maskUnits="userSpaceOnUse"><g class="cls-63"/></mask><radialGradient id="radial-gradient-6" cx="24.35" cy="48.05" r="34.13" xlink:href="#radial-gradient-2"/><filter id="luminosity-noclip-7" x="121.13" y="-8065.55" width="53.17" height="32766" filterUnits="userSpaceOnUse" color-interpolation-filters="sRGB"><feFlood flood-color="#fff" result="bg"/><feBlend in="SourceGraphic" in2="bg"/></filter><mask id="mask-7" x="121.13" y="-8065.55" width="53.17" height="32766" maskUnits="userSpaceOnUse"><g class="cls-62"/></mask><radialGradient id="radial-gradient-7" cx="155.11" cy="-4.89" r="74.8" gradientUnits="userSpaceOnUse"><stop offset="0.55" stop-color="#fff"/><stop offset="0.74" stop-color="#fff"/><stop offset="0.99"/></radialGradient><filter id="luminosity-noclip-8" x="145.49" y="-8065.55" width="44.49" height="32766" filterUnits="userSpaceOnUse" color-interpolation-filters="sRGB"><feFlood flood-color="#fff" result="bg"/><feBlend in="SourceGraphic" in2="bg"/></filter><mask id="mask-8" x="145.49" y="-8065.55" width="44.49" height="32766" maskUnits="userSpaceOnUse"><g class="cls-61"/></mask><radialGradient id="radial-gradient-8" cx="167.92" cy="25.53" r="57.78" gradientUnits="userSpaceOnUse"><stop offset="0.52" stop-color="#fff"/><stop offset="0.7" stop-color="#fff"/><stop offset="0.99"/></radialGradient><radialGradient id="radial-gradient-9" cx="111.98" cy="-111.18" r="209.82" gradientUnits="userSpaceOnUse"><stop offset="0.16" stop-color="#bcbcbc"/><stop offset="0.69" stop-color="#92bac0"/><stop offset="1" stop-color="#549cc6"/></radialGradient><radialGradient id="radial-gradient-10" cx="111.98" cy="-111.18" r="209.82" gradientUnits="userSpaceOnUse"><stop offset="0.39" stop-color="#92bac0"/><stop offset="1" stop-color="#549cc6"/></radialGradient><mask id="mask-9" x="92.13" y="6.96" width="49.93" height="42.67" maskUnits="userSpaceOnUse"><g class="cls-1"><path class="cls-2" d="M100.92,14.51C89.85,25,92.38,37,92.38,37c3.48,21.56,50,13.88,49.68-10.8S112,4.07,100.92,14.51Z"/></g></mask><radialGradient id="radial-gradient-11" cx="117.31" cy="-21.48" r="64.84" gradientUnits="userSpaceOnUse"><stop offset="0.52" stop-color="#bcbcbc"/><stop offset="0.7" stop-color="#92bac0"/><stop offset="0.99" stop-color="#549cc6"/></radialGradient><mask id="mask-10" x="57.78" y="22.86" width="48.65" height="51.49" maskUnits="userSpaceOnUse"><g class="cls-9"><path class="cls-10" d="M89.23,37.21c-2-3.66-3.32-9-2.36-13.47-12.2-3.61-23,4.38-26.92,15.08-5.62,15.34,1.48,28.69,1.48,28.69,10.23,16.18,40.56.85,45-16.93C99.4,48.09,92.88,43.9,89.23,37.21Z"/></g></mask><radialGradient id="radial-gradient-12" cx="59.48" cy="25.77" r="46.49" gradientUnits="userSpaceOnUse"><stop offset="0.15" stop-color="#bcbcbc"/><stop offset="0.46" stop-color="#92bac0"/><stop offset="0.99" stop-color="#549cc6"/></radialGradient><mask id="mask-11" x="32.42" y="54.19" width="27.48" height="22.99" maskUnits="userSpaceOnUse"><g class="cls-11"><path class="cls-12" d="M57.93,63.51l-2.25-1.07a41.49,41.49,0,0,1-4.55-8.25S32.67,55,32.43,67c-.24,11.63,22.1,10.1,22.1,10.1S63.86,65.69,57.93,63.51Z"/></g></mask><radialGradient id="radial-gradient-13" cx="24.35" cy="48.05" r="34.13" xlink:href="#radial-gradient-12"/><mask id="mask-12" x="121.13" y="42.39" width="53.17" height="35.62" maskUnits="userSpaceOnUse"><g class="cls-13"><path class="cls-14" d="M121.81,67.59c-3.47-7.72,6.57-20.83,22.37-24.3s26.62,3.47,29.7,15S162.31,78.39,147.65,78,125.49,75.77,121.81,67.59Z"/></g></mask><radialGradient id="radial-gradient-14" cx="155.11" cy="-4.89" r="74.8" gradientUnits="userSpaceOnUse"><stop offset="0.55" stop-color="#bcbcbc"/><stop offset="0.74" stop-color="#92bac0"/><stop offset="0.99" stop-color="#549cc6"/></radialGradient><radialGradient id="radial-gradient-15" cx="163.17" cy="-54.39" r="186.95" gradientUnits="userSpaceOnUse"><stop offset="0.16" stop-color="#757575"/><stop offset="0.69" stop-color="#51797f"/><stop offset="1" stop-color="#17658c"/></radialGradient><radialGradient id="radial-gradient-16" cx="163.17" cy="-54.39" r="186.95" gradientUnits="userSpaceOnUse"><stop offset="0.39" stop-color="#51797f"/><stop offset="1" stop-color="#17658c"/></radialGradient><mask id="mask-13" x="145.49" y="50.88" width="44.49" height="38.02" maskUnits="userSpaceOnUse"><g class="cls-15"><path class="cls-16" d="M153.32,57.6c-9.87,9.31-7.61,20.05-7.61,20.05C148.81,96.86,190.26,90,190,68S163.19,48.3,153.32,57.6Z"/></g></mask><radialGradient id="radial-gradient-17" cx="167.92" cy="25.53" r="57.78" gradientUnits="userSpaceOnUse"><stop offset="0.52" stop-color="#757575"/><stop offset="0.7" stop-color="#51797f"/><stop offset="0.99" stop-color="#17658c"/></radialGradient><mask id="mask-14" x="114.88" y="65.04" width="43.35" height="45.88" maskUnits="userSpaceOnUse"><g class="cls-3"><path class="cls-4" d="M142.9,77.82c-1.78-3.26-3-8-2.1-12-10.87-3.21-20.49,3.91-24,13.44a33.78,33.78,0,0,0,1.31,25.56c9.12,14.42,36.14.76,40.1-15.09C152,87.52,146.16,83.79,142.9,77.82Z"/></g></mask><radialGradient id="radial-gradient-18" cx="116.39" cy="67.63" r="41.42" gradientUnits="userSpaceOnUse"><stop offset="0.15" stop-color="#757575"/><stop offset="0.46" stop-color="#51797f"/><stop offset="0.99" stop-color="#17658c"/></radialGradient><mask id="mask-15" x="92.29" y="92.95" width="24.48" height="20.48" maskUnits="userSpaceOnUse"><g class="cls-5"><path class="cls-6" d="M115,101.27l-2-1A36.47,36.47,0,0,1,109,93s-16.45.73-16.66,11.43c-.22,10.36,19.69,9,19.69,9S120.29,103.2,115,101.27Z"/></g></mask><radialGradient id="radial-gradient-19" cx="85.09" cy="87.49" r="30.41" xlink:href="#radial-gradient-18"/><mask id="mask-16" x="171.32" y="82.44" width="47.37" height="31.74" maskUnits="userSpaceOnUse"><g class="cls-7"><path class="cls-8" d="M171.93,104.89c-3.09-6.87,5.85-18.55,19.93-21.65s23.72,3.09,26.47,13.4S208,114.52,195,114.17,175.21,112.18,171.93,104.89Z"/></g></mask><radialGradient id="radial-gradient-20" cx="201.6" cy="40.31" r="66.65" gradientUnits="userSpaceOnUse"><stop offset="0.55" stop-color="#757575"/><stop offset="0.74" stop-color="#51797f"/><stop offset="0.99" stop-color="#17658c"/></radialGradient><radialGradient id="radial-gradient-21" cx="0.28" cy="151.58" r="17.82" gradientUnits="userSpaceOnUse"><stop offset="0.1" stop-color="#bcbcbc"/><stop offset="0.54" stop-color="#92bac0"/><stop offset="1" stop-color="#549cc6"/></radialGradient><radialGradient id="radial-gradient-22" cx="0.28" cy="151.58" r="17.82" gradientUnits="userSpaceOnUse"><stop offset="0.68" stop-color="#92bac0"/><stop offset="1" stop-color="#549cc6"/></radialGradient><radialGradient id="radial-gradient-23" cx="51.57" cy="151.58" r="17.82" xlink:href="#radial-gradient-21"/><radialGradient id="radial-gradient-24" cx="51.57" cy="151.58" r="17.82" xlink:href="#radial-gradient-22"/><radialGradient id="radial-gradient-25" cx="104.41" cy="151.58" r="17.82" xlink:href="#radial-gradient-21"/><radialGradient id="radial-gradient-26" cx="104.41" cy="151.58" r="17.82" xlink:href="#radial-gradient-22"/><radialGradient id="radial-gradient-27" cx="155.7" cy="151.58" r="17.82" xlink:href="#radial-gradient-21"/><radialGradient id="radial-gradient-28" cx="155.7" cy="151.58" r="17.82" xlink:href="#radial-gradient-22"/><radialGradient id="radial-gradient-29" cx="206.48" cy="151.58" r="17.82" xlink:href="#radial-gradient-21"/><radialGradient id="radial-gradient-30" cx="206.48" cy="151.58" r="17.82" xlink:href="#radial-gradient-22"/><radialGradient id="radial-gradient-31" cx="21.66" cy="173.06" r="17.82" xlink:href="#radial-gradient-21"/><radialGradient id="radial-gradient-32" cx="21.66" cy="173.06" r="17.82" xlink:href="#radial-gradient-22"/><radialGradient id="radial-gradient-33" cx="72.96" cy="173.06" r="17.82" xlink:href="#radial-gradient-21"/><radialGradient id="radial-gradient-34" cx="72.96" cy="173.06" r="17.82" xlink:href="#radial-gradient-22"/><radialGradient id="radial-gradient-35" cx="125.79" cy="173.06" r="17.82" xlink:href="#radial-gradient-21"/><radialGradient id="radial-gradient-36" cx="125.79" cy="173.06" r="17.82" xlink:href="#radial-gradient-22"/><radialGradient id="radial-gradient-37" cx="177.08" cy="173.06" r="17.82" xlink:href="#radial-gradient-21"/><radialGradient id="radial-gradient-38" cx="177.08" cy="173.06" r="17.82" xlink:href="#radial-gradient-22"/></defs><g class="cls-17"><g id="Calque_2" data-name="Calque 2"><g id="Layer_1" data-name="Layer 1"><path class="cls-18" d="M185.75,57.34c-4.2-15.29-20.94-22.94-34.9-20.51,3.58-6.49,1.92-15.32-.67-21.91C147,6.84,136.87.53,127.4,0A43,43,0,0,0,121,.26,29.72,29.72,0,0,0,116,1,41.17,41.17,0,0,0,98.66,9a31.9,31.9,0,0,0-7.79,10.23,30.72,30.72,0,0,0-18.54-.78C59.72,22.06,50.11,36,51.92,49c0,.24,0,.47,0,.71a30.78,30.78,0,0,0-10.81,1.13,17.4,17.4,0,0,0-2.37.75,22.54,22.54,0,0,0-4.5,2.1C26.89,58.34,21.4,68,24.8,76.81c4.38,11.39,16.63,13.3,27.46,14.74a59.5,59.5,0,0,0,19-.57A57.4,57.4,0,0,0,84,94.9c10.81,2.58,22.34,2.87,33.39,3.22a108.76,108.76,0,0,0,27.05-2.56,41.32,41.32,0,0,0,19.11-.36c10.79-2.91,22-12.31,23.2-24.41A28.76,28.76,0,0,0,185.75,57.34Z"/><g class="cls-19"><path class="cls-20" d="M185.75,57.34c-4.2-15.29-20.94-22.94-34.9-20.51,3.58-6.49,1.92-15.32-.67-21.91C147,6.84,136.87.53,127.4,0A43,43,0,0,0,121,.26,29.72,29.72,0,0,0,116,1,41.17,41.17,0,0,0,98.66,9a31.9,31.9,0,0,0-7.79,10.23,30.72,30.72,0,0,0-18.54-.78C59.72,22.06,50.11,36,51.92,49c0,.24,0,.47,0,.71a30.78,30.78,0,0,0-10.81,1.13,17.4,17.4,0,0,0-2.37.75,22.54,22.54,0,0,0-4.5,2.1C26.89,58.34,21.4,68,24.8,76.81c4.38,11.39,16.63,13.3,27.46,14.74a59.5,59.5,0,0,0,19-.57A57.4,57.4,0,0,0,84,94.9c10.81,2.58,22.34,2.87,33.39,3.22a108.76,108.76,0,0,0,27.05-2.56,41.32,41.32,0,0,0,19.11-.36c10.79-2.91,22-12.31,23.2-24.41A28.76,28.76,0,0,0,185.75,57.34ZM166.2,70.59C155,83.84,127.65,83.06,119.43,67.26a27.23,27.23,0,0,0,4.35,15.95c1.27,2-9.84,5.17-27.8,3.13-10.57-1.2-39.28-3-40.22-14.51a8.82,8.82,0,0,0-1,5.21c-23.19,7-37.37-19-3.62-22.85,1.16,2.5,2,6.26,4.92,9.35-1-9.45.62-20.19,2.75-24.54C69.21,17.74,87.17,23.18,87.15,23.81c-.15,5.93,1,9.26,4,13.16C89.46,26.71,93.55,21,99.79,16a34.53,34.53,0,0,1,24.38-7.6c7.63.69,15.63,4.25,17.27,12.56,2.05,10.36-2.48,18.94-8.89,26.38C142.11,42,153,37.61,162.81,45,170.18,50.58,172.31,63.4,166.2,70.59Z"/></g><g class="cls-21"><path class="cls-22" d="M185.75,57.34c-4.2-15.29-20.94-22.94-34.9-20.51,3.58-6.49,1.92-15.32-.67-21.91C147,6.84,136.87.53,127.4,0A43,43,0,0,0,121,.26,29.72,29.72,0,0,0,116,1,41.17,41.17,0,0,0,98.66,9a31.9,31.9,0,0,0-7.79,10.23,30.72,30.72,0,0,0-18.54-.78C59.72,22.06,50.11,36,51.92,49c0,.24,0,.47,0,.71a30.78,30.78,0,0,0-10.81,1.13,17.4,17.4,0,0,0-2.37.75,22.54,22.54,0,0,0-4.5,2.1C26.89,58.34,21.4,68,24.8,76.81c4.38,11.39,16.63,13.3,27.46,14.74a59.5,59.5,0,0,0,19-.57A57.4,57.4,0,0,0,84,94.9c10.81,2.58,22.34,2.87,33.39,3.22a108.76,108.76,0,0,0,27.05-2.56,41.32,41.32,0,0,0,19.11-.36c10.79-2.91,22-12.31,23.2-24.41A28.76,28.76,0,0,0,185.75,57.34Zm-6.42,20.75c-3,7.16-9.82,12.42-18.32,14.06-7.36,1.42-15.6,2-22.75-.75a21.91,21.91,0,0,1-7.38-4.81c-.45-.43-1-.91-1.45-1.43a18.56,18.56,0,0,0,9.29,8.54A126.85,126.85,0,0,1,115.88,95c-7.94-.2-26.65-.62-37.28-4.27a43.77,43.77,0,0,1-11.74-5.34c-4-2.59-8.36-6.14-11-10.44,1.8,6.06,5.89,10.5,11.07,13.7-.85.11-1.7.21-2.56.28a59.1,59.1,0,0,1-28-4.86c-10.07-4.69-10.69-17.38-3.71-24.9,4.21-4.55,12.5-6.7,19.61-6.19a26.22,26.22,0,0,0,2.9,8.62,42.63,42.63,0,0,1-.24-17.24,31.16,31.16,0,0,1,12-20A23.67,23.67,0,0,1,75.47,21a26.81,26.81,0,0,1,14.18,1.19c-1.16,3.43-1.44,6.91-.18,9.87-.55-4.7,1.4-9.69,4.31-13.4A34.2,34.2,0,0,1,127.89,4c11.2,1.93,14.8,6.14,18.39,11.61,4,6.1,4,15.42,1.26,22a23.43,23.43,0,0,0-10.72,7.22,30.18,30.18,0,0,1,12.46-4.19,34.87,34.87,0,0,1,14.54,1.17c5.72,1.86,12.05,6.16,15,11.84C180.3,56.29,184.24,68.62,179.33,78.09Z"/></g><g class="cls-23"><path class="cls-24" d="M100.92,14.51C89.85,25,92.38,37,92.38,37c3.48,21.56,50,13.88,49.68-10.8S112,4.07,100.92,14.51Z"/></g><g class="cls-25"><path class="cls-26" d="M89.23,37.21c-2-3.66-3.32-9-2.36-13.47-12.2-3.61-23,4.38-26.92,15.08-5.62,15.34,1.48,28.69,1.48,28.69,10.23,16.18,40.56.85,45-16.93C99.4,48.09,92.88,43.9,89.23,37.21Z"/></g><g class="cls-27"><path class="cls-28" d="M57.93,63.51l-2.25-1.07a41.49,41.49,0,0,1-4.55-8.25S32.67,55,32.43,67c-.24,11.63,22.1,10.1,22.1,10.1S63.86,65.69,57.93,63.51Z"/></g><g class="cls-29"><path class="cls-30" d="M121.81,67.59c-3.47-7.72,6.57-20.83,22.37-24.3s26.62,3.47,29.7,15S162.31,78.39,147.65,78,125.49,75.77,121.81,67.59Z"/></g><path class="cls-31" d="M228.9,95.77c-3.74-13.62-18.66-20.45-31.1-18.28,3.2-5.78,1.72-13.65-.6-19.52-2.83-7.2-11.85-12.82-20.29-13.26a36.26,36.26,0,0,0-5.67.2,25.55,25.55,0,0,0-4.46.68,36.74,36.74,0,0,0-15.48,7.09,28.2,28.2,0,0,0-6.94,9.11,27.38,27.38,0,0,0-16.52-.7c-11.23,3.24-19.8,15.68-18.19,27.2,0,.21,0,.42,0,.63a27.42,27.42,0,0,0-9.63,1,15.45,15.45,0,0,0-2.12.66,21.2,21.2,0,0,0-4,1.87c-6.56,4.2-11.44,12.8-8.42,20.65C89.4,123.25,100.31,125,110,126.24a52.68,52.68,0,0,0,16.91-.51,50.69,50.69,0,0,0,11.34,3.5c9.64,2.3,19.91,2.55,29.75,2.87a97.47,97.47,0,0,0,24.1-2.28,36.91,36.91,0,0,0,17-.33c9.62-2.59,19.58-11,20.68-21.74A25.61,25.61,0,0,0,228.9,95.77Z"/><g class="cls-19"><path class="cls-32" d="M228.9,95.77c-3.74-13.62-18.66-20.45-31.1-18.28,3.2-5.78,1.72-13.65-.6-19.52-2.83-7.2-11.85-12.82-20.29-13.26a36.26,36.26,0,0,0-5.67.2,25.55,25.55,0,0,0-4.46.68,36.74,36.74,0,0,0-15.48,7.09,28.2,28.2,0,0,0-6.94,9.11,27.38,27.38,0,0,0-16.52-.7c-11.23,3.24-19.8,15.68-18.19,27.2,0,.21,0,.42,0,.63a27.42,27.42,0,0,0-9.63,1,15.45,15.45,0,0,0-2.12.66,21.2,21.2,0,0,0-4,1.87c-6.56,4.2-11.44,12.8-8.42,20.65C89.4,123.25,100.31,125,110,126.24a52.68,52.68,0,0,0,16.91-.51,50.69,50.69,0,0,0,11.34,3.5c9.64,2.3,19.91,2.55,29.75,2.87a97.47,97.47,0,0,0,24.1-2.28,36.91,36.91,0,0,0,17-.33c9.62-2.59,19.58-11,20.68-21.74A25.61,25.61,0,0,0,228.9,95.77Zm-17.41,11.8c-10,11.81-34.36,11.11-41.68-3a24.32,24.32,0,0,0,3.87,14.21c1.14,1.74-8.76,4.61-24.76,2.79-9.42-1.07-35-2.72-35.84-12.93a7.9,7.9,0,0,0-.9,4.64C91.51,119.58,78.88,96.38,109,93c1,2.24,1.81,5.59,4.38,8.34-.85-8.42.56-18,2.46-21.87,9.27-18.94,25.27-14.09,25.26-13.53-.13,5.28.9,8.24,3.61,11.73-1.56-9.15,2.09-14.21,7.65-18.66A30.77,30.77,0,0,1,174,52.19c6.8.62,13.93,3.78,15.39,11.19,1.82,9.23-2.21,16.87-7.92,23.51,8.52-4.84,18.22-8.7,27-2.1C215,89.74,216.93,101.16,211.49,107.57Z"/></g><g class="cls-21"><path class="cls-33" d="M228.9,95.77c-3.74-13.62-18.66-20.45-31.1-18.28,3.2-5.78,1.72-13.65-.6-19.52-2.83-7.2-11.85-12.82-20.29-13.26a36.26,36.26,0,0,0-5.67.2,25.55,25.55,0,0,0-4.46.68,36.74,36.74,0,0,0-15.48,7.09,28.2,28.2,0,0,0-6.94,9.11,27.38,27.38,0,0,0-16.52-.7c-11.23,3.24-19.8,15.68-18.19,27.2,0,.21,0,.42,0,.63a27.42,27.42,0,0,0-9.63,1,15.45,15.45,0,0,0-2.12.66,21.2,21.2,0,0,0-4,1.87c-6.56,4.2-11.44,12.8-8.42,20.65C89.4,123.25,100.31,125,110,126.24a52.68,52.68,0,0,0,16.91-.51,50.69,50.69,0,0,0,11.34,3.5c9.64,2.3,19.91,2.55,29.75,2.87a97.47,97.47,0,0,0,24.1-2.28,36.91,36.91,0,0,0,17-.33c9.62-2.59,19.58-11,20.68-21.74A25.61,25.61,0,0,0,228.9,95.77Zm-5.72,18.48c-2.69,6.38-8.75,11.07-16.32,12.53-6.56,1.27-13.9,1.82-20.27-.67a19.56,19.56,0,0,1-6.58-4.29c-.4-.38-.87-.81-1.29-1.27a16.49,16.49,0,0,0,8.27,7.6,112.88,112.88,0,0,1-20.34,1.2c-7.08-.19-23.75-.56-33.22-3.81A38.84,38.84,0,0,1,123,120.78c-3.55-2.31-7.45-5.47-9.82-9.3,1.61,5.4,5.25,9.35,9.86,12.21-.75.09-1.51.19-2.28.24a52.61,52.61,0,0,1-25-4.33c-9-4.17-9.52-15.48-3.3-22.19,3.75-4,11.13-6,17.47-5.51a23.7,23.7,0,0,0,2.59,7.69,37.92,37.92,0,0,1-.22-15.37,27.72,27.72,0,0,1,10.73-17.83,21,21,0,0,1,7.59-3,23.82,23.82,0,0,1,12.63,1.06c-1,3.06-1.28,6.16-.16,8.8-.49-4.19,1.25-8.64,3.85-12a30.47,30.47,0,0,1,30.38-13.07c10,1.73,13.19,5.48,16.39,10.35,3.59,5.44,3.57,13.74,1.12,19.63a20.68,20.68,0,0,0-9.54,6.43,26.58,26.58,0,0,1,11.09-3.74,31,31,0,0,1,13,1c5.1,1.65,10.73,5.48,13.38,10.54C224,94.83,227.55,105.82,223.18,114.25Z"/></g><g class="cls-34"><path class="cls-35" d="M153.32,57.6c-9.87,9.31-7.61,20.05-7.61,20.05C148.81,96.86,190.26,90,190,68S163.19,48.3,153.32,57.6Z"/></g><g class="cls-36"><path class="cls-37" d="M142.9,77.82c-1.78-3.26-3-8-2.1-12-10.87-3.21-20.49,3.91-24,13.44a33.78,33.78,0,0,0,1.31,25.56c9.12,14.42,36.14.76,40.1-15.09C152,87.52,146.16,83.79,142.9,77.82Z"/></g><g class="cls-38"><path class="cls-39" d="M115,101.27l-2-1A36.47,36.47,0,0,1,109,93s-16.45.73-16.66,11.43c-.22,10.36,19.69,9,19.69,9S120.29,103.2,115,101.27Z"/></g><g class="cls-40"><path class="cls-41" d="M171.93,104.89c-3.09-6.87,5.85-18.55,19.93-21.65s23.72,3.09,26.47,13.4S208,114.52,195,114.17,175.21,112.18,171.93,104.89Z"/></g><path class="cls-42" d="M14.34,146.11S.54,155.88,0,162.42s10,9.68,12.67.61A44.84,44.84,0,0,0,14.34,146.11Z"/><path class="cls-43" d="M14.25,146.17c0,3.49-1.68,10.33-2.06,12.1-.66,3.07-1.78,5.62-4.68,7.07-4.66,2.31-7.68-2.35-6.33-6.21A8.26,8.26,0,0,0,0,162.42C-.5,169,10,172.1,12.69,163a44.84,44.84,0,0,0,1.65-16.92Z"/><path class="cls-44" d="M9,157.05c-.88,3-4.31,1.94-4.14-.2s4.69-5.33,4.69-5.33A14.62,14.62,0,0,1,9,157.05Z"/><path class="cls-45" d="M65.64,146.11s-13.8,9.77-14.33,16.31,10,9.68,12.67.61A45,45,0,0,0,65.64,146.11Z"/><path class="cls-46" d="M65.55,146.17c0,3.49-1.69,10.33-2.06,12.1-.66,3.07-1.78,5.62-4.69,7.07-4.65,2.31-7.67-2.35-6.33-6.21a8.58,8.58,0,0,0-1.16,3.29c-.52,6.54,10,9.68,12.67.61a45,45,0,0,0,1.66-16.92Z"/><path class="cls-44" d="M60.34,157.05c-.89,3-4.32,1.94-4.14-.2s4.68-5.33,4.68-5.33A14.73,14.73,0,0,1,60.34,157.05Z"/><path class="cls-47" d="M118.47,146.11s-13.8,9.77-14.32,16.31,10,9.68,12.66.61A44.73,44.73,0,0,0,118.47,146.11Z"/><path class="cls-48" d="M118.38,146.17c0,3.49-1.68,10.33-2.06,12.1-.66,3.07-1.78,5.62-4.68,7.07-4.66,2.31-7.68-2.35-6.33-6.21a8.26,8.26,0,0,0-1.16,3.29c-.52,6.54,10,9.68,12.66.61a44.73,44.73,0,0,0,1.66-16.92Z"/><path class="cls-44" d="M113.17,157.05c-.88,3-4.32,1.94-4.14-.2s4.68-5.33,4.68-5.33A14.48,14.48,0,0,1,113.17,157.05Z"/><path class="cls-49" d="M169.76,146.11s-13.79,9.77-14.32,16.31,10,9.68,12.67.61A44.84,44.84,0,0,0,169.76,146.11Z"/><path class="cls-50" d="M169.67,146.17c0,3.49-1.68,10.33-2.06,12.1-.66,3.07-1.77,5.62-4.68,7.07-4.66,2.31-7.68-2.35-6.33-6.21a8.26,8.26,0,0,0-1.16,3.29c-.52,6.54,10,9.68,12.67.61a44.84,44.84,0,0,0,1.65-16.92Z"/><path class="cls-44" d="M164.47,157.05c-.89,3-4.32,1.94-4.15-.2s4.69-5.33,4.69-5.33A14.73,14.73,0,0,1,164.47,157.05Z"/><path class="cls-51" d="M220.55,146.11s-13.8,9.77-14.33,16.31,10,9.68,12.67.61A45,45,0,0,0,220.55,146.11Z"/><path class="cls-52" d="M220.45,146.17c0,3.49-1.68,10.33-2.06,12.1-.66,3.07-1.77,5.62-4.68,7.07-4.65,2.31-7.67-2.35-6.33-6.21a8.42,8.42,0,0,0-1.16,3.29c-.52,6.54,10,9.68,12.67.61a45,45,0,0,0,1.66-16.92Z"/><path class="cls-44" d="M215.24,157.05c-.88,3-4.31,1.94-4.13-.2s4.68-5.33,4.68-5.33A14.62,14.62,0,0,1,215.24,157.05Z"/><path class="cls-53" d="M35.72,167.59s-13.8,9.77-14.32,16.31,10,9.68,12.67.61A44.83,44.83,0,0,0,35.72,167.59Z"/><path class="cls-54" d="M35.63,167.65c0,3.49-1.68,10.33-2.06,12.11-.66,3.06-1.77,5.6-4.68,7.06-4.66,2.31-7.68-2.35-6.33-6.21a8.31,8.31,0,0,0-1.16,3.29c-.52,6.54,10,9.68,12.67.61a44.83,44.83,0,0,0,1.65-16.92Z"/><path class="cls-44" d="M30.42,178.53c-.88,3-4.31,1.94-4.14-.2S31,173,31,173A14.62,14.62,0,0,1,30.42,178.53Z"/><path class="cls-55" d="M87,167.59s-13.8,9.77-14.32,16.31,10,9.68,12.66.61A45,45,0,0,0,87,167.59Z"/><path class="cls-56" d="M86.93,167.65c0,3.49-1.69,10.33-2.06,12.11-.66,3.06-1.78,5.6-4.69,7.06-4.65,2.31-7.67-2.35-6.33-6.21a8.44,8.44,0,0,0-1.15,3.29c-.53,6.54,10,9.68,12.66.61A45,45,0,0,0,87,167.59Z"/><path class="cls-44" d="M81.72,178.53c-.89,3-4.32,1.94-4.14-.2S82.26,173,82.26,173A14.73,14.73,0,0,1,81.72,178.53Z"/><path class="cls-57" d="M139.85,167.59s-13.8,9.77-14.32,16.31,10,9.68,12.66.61A44.73,44.73,0,0,0,139.85,167.59Z"/><path class="cls-58" d="M139.76,167.65c0,3.49-1.68,10.33-2.06,12.11-.66,3.06-1.78,5.6-4.68,7.06-4.66,2.31-7.68-2.35-6.33-6.21a8.31,8.31,0,0,0-1.16,3.29c-.52,6.54,10,9.68,12.66.61a44.73,44.73,0,0,0,1.66-16.92Z"/><path class="cls-44" d="M134.55,178.53c-.88,3-4.31,1.94-4.14-.2S135.1,173,135.1,173A14.62,14.62,0,0,1,134.55,178.53Z"/><path class="cls-59" d="M191.14,167.59s-13.79,9.77-14.32,16.31,10,9.68,12.67.61A44.83,44.83,0,0,0,191.14,167.59Z"/><path class="cls-60" d="M191.06,167.65c0,3.49-1.69,10.33-2.07,12.11-.66,3.06-1.77,5.6-4.68,7.06-4.65,2.31-7.67-2.35-6.33-6.21a8.31,8.31,0,0,0-1.16,3.29c-.52,6.54,10,9.68,12.67.61a44.83,44.83,0,0,0,1.65-16.92Z"/><path class="cls-44" d="M185.85,178.53c-.89,3-4.32,1.94-4.15-.2s4.69-5.33,4.69-5.33A14.73,14.73,0,0,1,185.85,178.53Z"/></g></g></g></svg>