<svg xmlns="http://www.w3.org/2000/svg" xmlns:xlink="http://www.w3.org/1999/xlink" viewBox="0 0 182.69 199.93"><defs><style>.cls-1{mask:url(#mask);filter:url(#luminosity-noclip-3);}.cls-13,.cls-19,.cls-2,.cls-21,.cls-24,.cls-27,.cls-30,.cls-33,.cls-4,.cls-7,.cls-9{mix-blend-mode:multiply;}.cls-2{fill:url(#radial-gradient);}.cls-3{mask:url(#mask-2);filter:url(#luminosity-noclip-4);}.cls-4{fill:url(#radial-gradient-2);}.cls-5{isolation:isolate;}.cls-36,.cls-38,.cls-6{mix-blend-mode:screen;}.cls-6{fill:url(#radial-gradient-3);}.cls-19,.cls-21,.cls-24,.cls-27,.cls-30,.cls-33,.cls-7{opacity:0.6;}.cls-7{fill:url(#linear-gradient);}.cls-8{fill:url(#Dégradé_sans_nom_7);}.cls-13,.cls-9{opacity:0.4;}.cls-9{fill:url(#radial-gradient-4);}.cls-10{fill:url(#radial-gradient-5);}.cls-11{fill:url(#Dégradé_sans_nom_7-2);}.cls-12{fill:url(#Dégradé_sans_nom_7-3);}.cls-13{fill:url(#radial-gradient-6);}.cls-14{fill:url(#linear-gradient-2);}.cls-15{fill:url(#linear-gradient-3);}.cls-16{fill:url(#linear-gradient-4);}.cls-17{fill:url(#linear-gradient-5);}.cls-18{fill:url(#linear-gradient-6);}.cls-20,.cls-21{fill:url(#linear-gradient-7);}.cls-22{fill:url(#linear-gradient-9);}.cls-23,.cls-24{fill:url(#linear-gradient-10);}.cls-25{fill:url(#linear-gradient-12);}.cls-26,.cls-27{fill:url(#linear-gradient-13);}.cls-28{fill:url(#linear-gradient-15);}.cls-29,.cls-30{fill:url(#linear-gradient-16);}.cls-31{fill:url(#linear-gradient-18);}.cls-32,.cls-33{fill:url(#linear-gradient-19);}.cls-34{fill:url(#linear-gradient-21);}.cls-35{mask:url(#mask-3);}.cls-36{fill:url(#radial-gradient-7);}.cls-37{mask:url(#mask-4);}.cls-38{fill:url(#radial-gradient-8);}.cls-39{filter:url(#luminosity-noclip-2);}.cls-40{filter:url(#luminosity-noclip);}</style><filter id="luminosity-noclip" x="1.18" y="-8413.62" width="74.79" height="32766" filterUnits="userSpaceOnUse" color-interpolation-filters="sRGB"><feFlood flood-color="#fff" result="bg"/><feBlend in="SourceGraphic" in2="bg"/></filter><mask id="mask" x="1.18" y="-8413.62" width="74.79" height="32766" maskUnits="userSpaceOnUse"><g class="cls-40"/></mask><radialGradient id="radial-gradient" cx="24.97" cy="55.82" r="49.37" gradientUnits="userSpaceOnUse"><stop offset="0.08" stop-color="#fff"/><stop offset="0.59" stop-color="#fff"/><stop offset="0.99"/></radialGradient><filter id="luminosity-noclip-2" x="91" y="-8413.62" width="74.79" height="32766" filterUnits="userSpaceOnUse" color-interpolation-filters="sRGB"><feFlood flood-color="#fff" result="bg"/><feBlend in="SourceGraphic" in2="bg"/></filter><mask id="mask-2" x="91" y="-8413.62" width="74.79" height="32766" maskUnits="userSpaceOnUse"><g class="cls-39"/></mask><radialGradient id="radial-gradient-2" cx="-700.56" cy="54.86" r="49.37" gradientTransform="matrix(-1, 0, 0, 1, -558.56, 0)" xlink:href="#radial-gradient"/><radialGradient id="radial-gradient-3" cx="72.39" cy="153.55" r="34.35" gradientUnits="userSpaceOnUse"><stop offset="0.55" stop-color="#fff"/><stop offset="0.74" stop-color="#acf2ff"/><stop offset="0.99" stop-color="#1bb3ff"/></radialGradient><linearGradient id="linear-gradient" x1="72.39" y1="103.15" x2="72.39" y2="189.69" gradientUnits="userSpaceOnUse"><stop offset="0" stop-color="#fff"/><stop offset="0.43" stop-color="#b6bdcc"/><stop offset="0.85" stop-color="#868a95"/></linearGradient><radialGradient id="Dégradé_sans_nom_7" cx="33.76" cy="48.29" fy="21.093198271716183" r="77.34" gradientUnits="userSpaceOnUse"><stop offset="0" stop-color="#fff"/><stop offset="0.43" stop-color="#ffe17f"/><stop offset="1" stop-color="#ff8a00"/></radialGradient><radialGradient id="radial-gradient-4" cx="33.76" cy="48.29" fy="21.093198271716183" r="77.34" gradientUnits="userSpaceOnUse"><stop offset="0" stop-color="#fff"/><stop offset="0.43" stop-color="#ff443e"/><stop offset="1" stop-color="#951100"/></radialGradient><radialGradient id="radial-gradient-5" cx="80.86" cy="83.35" r="39.51" gradientUnits="userSpaceOnUse"><stop offset="0.14" stop-color="#fff75d"/><stop offset="0.53" stop-color="#ffde00"/><stop offset="0.92" stop-color="#ff7d00"/></radialGradient><radialGradient id="Dégradé_sans_nom_7-2" cx="80.86" cy="83.35" fy="83.35230000000047" r="39.51" xlink:href="#Dégradé_sans_nom_7"/><radialGradient id="Dégradé_sans_nom_7-3" cx="144.25" cy="51.38" fx="115.02832998607396" fy="40.38017718272178" r="72.74" xlink:href="#Dégradé_sans_nom_7"/><radialGradient id="radial-gradient-6" cx="144.25" cy="51.38" fy="89.11878388366009" r="72.74" xlink:href="#radial-gradient-4"/><linearGradient id="linear-gradient-2" x1="43.12" y1="22.85" x2="43.12" y2="190.91" gradientUnits="userSpaceOnUse"><stop offset="0" stop-color="#fff"/><stop offset="0.43" stop-color="#ff443e"/><stop offset="0.85" stop-color="#951100"/></linearGradient><linearGradient id="linear-gradient-3" x1="2.2" y1="22.78" x2="2.2" y2="190.95" xlink:href="#linear-gradient-2"/><linearGradient id="linear-gradient-4" x1="117.62" y1="22.85" x2="117.62" y2="190.91" xlink:href="#linear-gradient-2"/><linearGradient id="linear-gradient-5" x1="166.7" y1="22.78" x2="166.7" y2="190.95" xlink:href="#linear-gradient-2"/><linearGradient id="linear-gradient-6" x1="84.76" y1="23.76" x2="84.76" y2="40.56" gradientUnits="userSpaceOnUse"><stop offset="0.43" stop-color="#ff443e"/><stop offset="0.85" stop-color="#951100"/></linearGradient><linearGradient id="linear-gradient-7" x1="139.4" y1="8.37" x2="150.18" y2="8.37" xlink:href="#linear-gradient"/><linearGradient id="linear-gradient-9" x1="143.03" y1="6.75" x2="146.56" y2="6.75" xlink:href="#linear-gradient"/><linearGradient id="linear-gradient-10" x1="141.91" y1="47.38" x2="152.7" y2="47.38" xlink:href="#linear-gradient"/><linearGradient id="linear-gradient-12" x1="145.55" y1="45.76" x2="149.07" y2="45.76" xlink:href="#linear-gradient"/><linearGradient id="linear-gradient-13" x1="166.46" y1="76.36" x2="177.24" y2="76.36" xlink:href="#linear-gradient"/><linearGradient id="linear-gradient-15" x1="170.09" y1="74.74" x2="173.62" y2="74.74" xlink:href="#linear-gradient"/><linearGradient id="linear-gradient-16" x1="112.38" y1="28.55" x2="123.17" y2="28.55" xlink:href="#linear-gradient"/><linearGradient id="linear-gradient-18" x1="116.01" y1="26.93" x2="119.54" y2="26.93" xlink:href="#linear-gradient"/><linearGradient id="linear-gradient-19" x1="171.91" y1="40.68" x2="182.69" y2="40.68" xlink:href="#linear-gradient"/><linearGradient id="linear-gradient-21" x1="175.54" y1="39.06" x2="179.07" y2="39.06" xlink:href="#linear-gradient"/><filter id="luminosity-noclip-3" x="1.18" y="40.47" width="74.79" height="66.64" filterUnits="userSpaceOnUse" color-interpolation-filters="sRGB"><feFlood flood-color="#fff" result="bg"/><feBlend in="SourceGraphic" in2="bg"/></filter><mask id="mask-3" x="1.18" y="40.47" width="74.79" height="66.64" maskUnits="userSpaceOnUse"><g class="cls-1"><path class="cls-2" d="M1.21,107.1S-.53,87.4,20.63,65.67,76,40.47,76,40.47,6.72,53.79,1.21,107.1Z"/></g></mask><radialGradient id="radial-gradient-7" cx="24.97" cy="55.82" r="49.37" gradientUnits="userSpaceOnUse"><stop offset="0.08" stop-color="#fff"/><stop offset="0.59" stop-color="#ff443e"/><stop offset="0.99" stop-color="#951100"/></radialGradient><filter id="luminosity-noclip-4" x="91" y="39.5" width="74.79" height="66.64" filterUnits="userSpaceOnUse" color-interpolation-filters="sRGB"><feFlood flood-color="#fff" result="bg"/><feBlend in="SourceGraphic" in2="bg"/></filter><mask id="mask-4" x="91" y="39.5" width="74.79" height="66.64" maskUnits="userSpaceOnUse"><g class="cls-3"><path class="cls-4" d="M165.75,106.14s1.74-19.7-19.41-41.43S91,39.5,91,39.5,160.25,52.83,165.75,106.14Z"/></g></mask><radialGradient id="radial-gradient-8" cx="-700.56" cy="54.86" r="49.37" gradientTransform="matrix(-1, 0, 0, 1, -558.56, 0)" xlink:href="#radial-gradient-7"/></defs><g class="cls-5"><g id="Calque_2" data-name="Calque 2"><g id="Layer_1" data-name="Layer 1"><path class="cls-6" d="M72.51,199.93l-.65,0a13.16,13.16,0,0,1-9.92-4.08c-4.53-5-4-12.36-4-13.18a3.5,3.5,0,1,1,7,.59c-.11,1.43.06,5.59,2.16,7.86A6.2,6.2,0,0,0,72,192.89h.28a8.4,8.4,0,0,0,5.56-1.85c1.35-1.28,2-3.32,2-6.06V110.68a3.5,3.5,0,1,1,7,0V185c0,4.8-1.45,8.58-4.32,11.24A15,15,0,0,1,72.51,199.93Z"/><path class="cls-7" d="M83.35,107.17a3.51,3.51,0,0,0-3.5,3.51v14.86a24.42,24.42,0,0,1,4.83.32v59.63c0,4.08-1.23,7.3-3.67,9.55a12.72,12.72,0,0,1-8.51,3.15l-.56,0a11.17,11.17,0,0,1-8.44-3.47c-3.84-4.2-3.42-10.5-3.36-11.2a3,3,0,0,1,3.22-2.71,2.71,2.71,0,0,1,1.07.31,3.45,3.45,0,0,0-2.66-1.65,3.49,3.49,0,0,0-3.79,3.2c-.07.82-.57,8.22,4,13.18a13.16,13.16,0,0,0,9.92,4.08l.65,0a15,15,0,0,0,10-3.7c2.87-2.66,4.32-6.44,4.32-11.24V110.68A3.51,3.51,0,0,0,83.35,107.17Z"/><path class="cls-8" d="M81,38.88C36,40.08,0,74.67,0,105.26a24.61,24.61,0,0,0,.89,8.27s13.67.18,41.27,12.18c1.7-32.3,13-55,22.92-68.89A110.09,110.09,0,0,1,81,38.88Z"/><path class="cls-9" d="M73.15,39.44a2.68,2.68,0,0,0,1.56.4c7.36-1.08-3.95,8-5.79,10a146.92,146.92,0,0,0-16.52,22A124,124,0,0,0,41,97.41c-2.22,6.64-5.37,11.78-12.63,13.11-7,1.28-18.53-.12-23.71-5.4-2.23-2.25-3.22-5.6-3.59-9.1A42.4,42.4,0,0,0,0,105.26a24.61,24.61,0,0,0,.89,8.27s13.67.18,41.27,12.18c1.7-32.3,13-55,22.92-68.89A110.09,110.09,0,0,1,81,38.88C78.34,39,75.73,39.15,73.15,39.44Z"/><path class="cls-10" d="M84.7,40C72.05,51.08,48,78.32,45.62,126.27c0,0,23.43-7.58,70.47.45C108.62,58.2,89.3,42.73,84.7,40Z"/><path class="cls-11" d="M84.7,40C72.05,51.08,48,78.32,45.62,126.27c0,0,23.43-7.58,70.47.45C108.62,58.2,89.3,42.73,84.7,40Zm6,72.7c-6.73-.75-12.46-.09-19.17.85-5.59.78-14.14,1-15.29-6.38-1.65-10.59,2.23-22.62,6.32-32.29,3.93-9.3,9.09-20.21,16.33-27.4a1.67,1.67,0,0,1,.24-.16c9.65-12.21,20,17.58,21.25,22.81C102.62,79.53,112.27,115.07,90.72,112.69Z"/><path class="cls-12" d="M88.89,39c7.55,5.82,23.88,25.31,30.65,87.12,0,0,17.53-8,47.26-12.38.21-1.64-.1-6.82-.1-8.49C166.7,75.4,132.34,41.69,88.89,39Z"/><path class="cls-13" d="M166.15,98.72a11.8,11.8,0,0,1-1,2c-3.09,4.83-7.82,6.66-13.25,7.91-9.8,2.27-22.93,4.61-28-6.55-6.93-15.23-9.42-33.25-19.59-47C101.9,51.82,93.81,45,95.12,40.24a5.06,5.06,0,0,1,.25-.58c-2.13-.29-4.29-.52-6.48-.65,7.55,5.82,23.88,25.31,30.65,87.12,0,0,17.53-8,47.26-12.38.21-1.64-.1-6.82-.1-8.49A41.43,41.43,0,0,0,166.15,98.72Z"/><path class="cls-14" d="M44.66,129.33a1.54,1.54,0,1,1-1.54-1.54A1.53,1.53,0,0,1,44.66,129.33Z"/><path class="cls-15" d="M3.74,116.24A1.54,1.54,0,1,1,2.2,114.7,1.54,1.54,0,0,1,3.74,116.24Z"/><path class="cls-16" d="M119.15,129.33a1.53,1.53,0,1,1-1.53-1.54A1.54,1.54,0,0,1,119.15,129.33Z"/><path class="cls-17" d="M168.23,116.24a1.53,1.53,0,1,1-3.06,0,1.53,1.53,0,1,1,3.06,0Z"/><path class="cls-18" d="M83.28,38.88h3l-.87-12.31s-.44-.87-1,0Z"/><g class="cls-19"><path class="cls-20" d="M150,0S139.8,7.25,139.41,12.1s7.39,7.18,9.4.45A33.27,33.27,0,0,0,150,0Z"/><path class="cls-21" d="M150,.05c0,2.58-1.25,7.66-1.53,9-.49,2.27-1.31,4.16-3.48,5.23-3.45,1.72-5.69-1.73-4.69-4.6a6.24,6.24,0,0,0-.86,2.44c-.39,4.85,7.39,7.18,9.4.45A33.27,33.27,0,0,0,150,0Z"/><path class="cls-22" d="M146.11,8.12c-.66,2.2-3.21,1.44-3.08-.15s3.48-4,3.48-4A11,11,0,0,1,146.11,8.12Z"/></g><g class="cls-19"><path class="cls-23" d="M152.55,39s-10.23,7.25-10.62,12.1,7.39,7.18,9.4.45A33.27,33.27,0,0,0,152.55,39Z"/><path class="cls-24" d="M152.49,39.06c0,2.59-1.25,7.67-1.53,9-.49,2.27-1.32,4.16-3.48,5.23-3.45,1.72-5.69-1.73-4.69-4.6a6.24,6.24,0,0,0-.86,2.44c-.39,4.85,7.39,7.18,9.4.45A33.27,33.27,0,0,0,152.55,39Z"/><path class="cls-25" d="M148.62,47.13c-.65,2.2-3.2,1.45-3.07-.15S149,43,149,43A10.73,10.73,0,0,1,148.62,47.13Z"/></g><g class="cls-19"><path class="cls-26" d="M177.1,68s-10.24,7.25-10.63,12.1,7.39,7.18,9.4.45A33.41,33.41,0,0,0,177.1,68Z"/><path class="cls-27" d="M177,68c0,2.59-1.25,7.66-1.53,9-.49,2.27-1.32,4.16-3.48,5.24-3.45,1.71-5.69-1.74-4.69-4.61a6.14,6.14,0,0,0-.86,2.44c-.39,4.85,7.39,7.18,9.4.45A33.41,33.41,0,0,0,177.1,68Z"/><path class="cls-28" d="M173.17,76.11c-.66,2.2-3.21,1.44-3.08-.15s3.48-4,3.48-4A11,11,0,0,1,173.17,76.11Z"/></g><g class="cls-19"><path class="cls-29" d="M123,20.19s-10.24,7.24-10.63,12.1,7.39,7.18,9.4.45A33.16,33.16,0,0,0,123,20.19Z"/><path class="cls-30" d="M123,20.23c0,2.59-1.24,7.67-1.53,9-.48,2.28-1.31,4.17-3.47,5.24-3.45,1.72-5.7-1.73-4.7-4.6a6.35,6.35,0,0,0-.86,2.44c-.38,4.85,7.39,7.18,9.4.45A33.16,33.16,0,0,0,123,20.19Z"/><path class="cls-31" d="M119.09,28.3c-.66,2.21-3.2,1.44-3.08-.15s3.48-3.95,3.48-3.95A10.73,10.73,0,0,1,119.09,28.3Z"/></g><g class="cls-19"><path class="cls-32" d="M182.54,32.31s-10.23,7.25-10.62,12.1,7.39,7.18,9.4.45A33.27,33.27,0,0,0,182.54,32.31Z"/><path class="cls-33" d="M182.48,32.36c0,2.58-1.25,7.66-1.53,9-.49,2.27-1.32,4.16-3.47,5.23-3.45,1.72-5.7-1.73-4.7-4.6a6.24,6.24,0,0,0-.86,2.44c-.39,4.85,7.39,7.18,9.4.45a33.27,33.27,0,0,0,1.22-12.55Z"/><path class="cls-34" d="M178.62,40.42c-.66,2.21-3.2,1.45-3.08-.14s3.48-4,3.48-4A11,11,0,0,1,178.62,40.42Z"/></g><g class="cls-35"><path class="cls-36" d="M1.21,107.1S-.53,87.4,20.63,65.67,76,40.47,76,40.47,6.72,53.79,1.21,107.1Z"/></g><g class="cls-37"><path class="cls-38" d="M165.75,106.14s1.74-19.7-19.41-41.43S91,39.5,91,39.5,160.25,52.83,165.75,106.14Z"/></g></g></g></g></svg>