<svg xmlns="http://www.w3.org/2000/svg" xmlns:xlink="http://www.w3.org/1999/xlink" viewBox="0 0 198.88 180.01"><defs><style>.cls-1{fill:url(#linear-gradient);}.cls-2{fill:url(#linear-gradient-2);}.cls-3{fill:url(#linear-gradient-3);}.cls-4{fill:url(#linear-gradient-4);}.cls-5{fill:url(#linear-gradient-5);}.cls-6{fill:url(#linear-gradient-6);}.cls-7{fill:url(#linear-gradient-7);}.cls-8{fill:url(#linear-gradient-8);}.cls-9{fill:url(#linear-gradient-9);}.cls-10{fill:url(#linear-gradient-10);}.cls-11{fill:url(#linear-gradient-11);}.cls-12{fill:url(#linear-gradient-12);}.cls-13{fill:url(#linear-gradient-13);}.cls-14{fill:url(#linear-gradient-14);}</style><linearGradient id="linear-gradient" x1="4.68" y1="90" x2="194.2" y2="90" gradientUnits="userSpaceOnUse"><stop offset="0" stop-color="#c4f5ff"/><stop offset="0.44" stop-color="#fff"/><stop offset="1" stop-color="#b4e1ff"/></linearGradient><linearGradient id="linear-gradient-2" x1="90.07" y1="72.11" x2="84.8" y2="91.35" gradientUnits="userSpaceOnUse"><stop offset="0" stop-color="#acf2ff"/><stop offset="0.4" stop-color="#1bb3ff"/><stop offset="1" stop-color="#004778"/></linearGradient><linearGradient id="linear-gradient-3" x1="102.21" y1="63.94" x2="96.03" y2="86.52" xlink:href="#linear-gradient-2"/><linearGradient id="linear-gradient-4" x1="102.58" y1="31.41" x2="93.1" y2="66.06" xlink:href="#linear-gradient-2"/><linearGradient id="linear-gradient-5" x1="104.62" y1="95.12" x2="98.62" y2="117.05" xlink:href="#linear-gradient-2"/><linearGradient id="linear-gradient-6" x1="107.47" y1="115.25" x2="97.98" y2="149.97" xlink:href="#linear-gradient-2"/><linearGradient id="linear-gradient-7" x1="147.03" y1="45.08" x2="134.55" y2="90.71" xlink:href="#linear-gradient-2"/><linearGradient id="linear-gradient-8" x1="142.66" y1="87.07" x2="127.85" y2="141.21" xlink:href="#linear-gradient-2"/><linearGradient id="linear-gradient-9" x1="125.71" y1="-6.47" x2="71.23" y2="192.71" xlink:href="#linear-gradient-2"/><linearGradient id="linear-gradient-10" x1="115.71" y1="89.61" x2="110.59" y2="108.32" xlink:href="#linear-gradient-2"/><linearGradient id="linear-gradient-11" x1="119.05" y1="71.33" x2="113.47" y2="91.76" xlink:href="#linear-gradient-2"/><linearGradient id="linear-gradient-12" x1="87.47" y1="89.1" x2="81.94" y2="109.33" xlink:href="#linear-gradient-2"/><linearGradient id="linear-gradient-13" x1="66.16" y1="91.47" x2="53.73" y2="136.92" xlink:href="#linear-gradient-2"/><linearGradient id="linear-gradient-14" x1="72.63" y1="41.72" x2="58" y2="95.19" xlink:href="#linear-gradient-2"/></defs><g id="Calque_2" data-name="Calque 2"><g id="Layer_1" data-name="Layer 1"><path class="cls-1" d="M193.37,80.39a2,2,0,0,0-2.72.47l-5.06,7.22h-8.42l7.47-10.66a1.94,1.94,0,1,0-3.18-2.23l-9.05,12.89h-7.33l11-15.65a1.95,1.95,0,1,0-3.19-2.24l-11,15.74L135,39.45,155,39a1.94,1.94,0,0,0,1.91-2,1.92,1.92,0,0,0-2-1.91l-20,.44,3.71-6.33L155,28.87a2,2,0,0,0-.08-3.91L141,25.28l4.74-8.06,9.17.49H155a1.95,1.95,0,0,0,.1-3.89l-9-.48-3.19-7.47a2,2,0,0,0-3.59,1.53L142.6,15c-.06.08-.15.14-.21.23l-4.16,7.08-5-11.62a1.95,1.95,0,0,0-3.58,1.53l6.1,14.26L132,32.92l-7.51-17.55a1.94,1.94,0,1,0-3.58,1.52L128.62,35H73.46l7.72-18.07a1.94,1.94,0,1,0-3.58-1.52L69.67,33.89l-3.76-6.44,6.5-15.22a1.95,1.95,0,0,0-3.58-1.53L63.46,23.26l-4.34-7.41L62.73,7.4a1.95,1.95,0,0,0-3.58-1.53L56,13.34l-9,.48a1.95,1.95,0,0,0,.1,3.89h.11l8.28-.44,4.67,8-13-.29a1.94,1.94,0,0,0-2,1.91,2,2,0,0,0,1.91,2l15.35.33,3.7,6.33-19-.42a1.88,1.88,0,0,0-2,1.91,1.94,1.94,0,0,0,1.91,2l19.16.43-28,48.46L26,70.4a1.94,1.94,0,1,0-3.18,2.23L33.63,88.08H26.31l-8.87-12.7a1.95,1.95,0,1,0-3.19,2.23l7.31,10.47H13.14L8.23,81A1.95,1.95,0,1,0,5,83.26l4.65,6.66L5.33,97.83a1.95,1.95,0,0,0,3.41,1.88L13,92h9.46l-7.57,11.58a2,2,0,0,0,3.27,2.13l9-13.71h7.46L23.51,108.91a2,2,0,0,0,.56,2.7,2,2,0,0,0,1.07.32,2,2,0,0,0,1.63-.89L38.65,92.85,66,140.13,46.8,141.76a1.95,1.95,0,1,0,.33,3.88L66.65,144l-3.73,6.33L46.8,151.69a1.95,1.95,0,1,0,.33,3.88l13.37-1.14-4.29,7.29-9.13.78a1.94,1.94,0,0,0-1.77,2.11,1.91,1.91,0,0,0,2.1,1.77l8.82-.75,3.86,7.66a1.95,1.95,0,0,0,3.48-1.76l-4-7.89L64,156.22,69.91,168a1.94,1.94,0,0,0,1.74,1.07,2,2,0,0,0,.88-.21,2,2,0,0,0,.86-2.62l-7.08-14,3.77-6.4,8.78,17.42a1.95,1.95,0,0,0,3.48-1.76l-8.27-16.39h53.58l-8.75,17.35a2,2,0,0,0,.85,2.62,2,2,0,0,0,.88.21,1.94,1.94,0,0,0,1.74-1.07l8.82-17.46,3.75,6.41-7.09,14.06a1.93,1.93,0,0,0,.86,2.61,1.83,1.83,0,0,0,.87.21,2,2,0,0,0,1.75-1.07l5.95-11.81,4.37,7.46-4,7.89a1.95,1.95,0,0,0,3.48,1.75L145,166.6l8.82.74a1.94,1.94,0,0,0,2.11-1.77,2,2,0,0,0-1.78-2.11l-9.12-.78-4.26-7.28,13.34,1.14a2,2,0,0,0,.33-3.89l-16.08-1.36-3.71-6.35,19.46,1.66a1.95,1.95,0,0,0,.33-3.88L134.74,141l26.79-46.39,10.52,16.18a1.95,1.95,0,0,0,3.27-2.12L164.43,92h7.45l8.79,13.52a1.94,1.94,0,0,0,1.63.89,1.92,1.92,0,0,0,1.07-.33,2,2,0,0,0,.57-2.69L176.53,92h8.65l5,7.69a1.94,1.94,0,0,0,1.64.88,1.89,1.89,0,0,0,1.06-.31,1.94,1.94,0,0,0,.57-2.69l-4.68-7.19,5.09-7.25A2,2,0,0,0,193.37,80.39ZM134,88.08l-1.87-3.24h-4.31l-9-15.63,1.82-3.15L118.84,63l12.73-21.64,27,46.77Zm-10,0H104.06l9.74-16.57h3.69l.2-.34,8,13.89Zm-13.72-18.2L100.46,86.5l-9.6-16.4,2.34-4-.15-.25h15.14l-.15.25Zm-26.5,1.63h3.43l9.69,16.57H76.67l-1.46-2.52,8.33-14.41ZM77,92H97.24l-9.41,16H83.75l-.38.65-8-13.87Zm14.21,18,9.26-15.74,9.4,16.07L108,113.43l.48.82H92.72l.48-.82Zm26.3-2H113l-9.36-16h20l1.89,3.28-7.71,13.35ZM115.7,60.61h-4.51l-1.87,3.25H91.92l-1.87-3.25H85.31L72.58,38.85H128.5ZM82.28,63.15,80.6,66.06l1.81,3.15-9,15.63H68.5l-1.87,3.24h-24L69.57,41.43ZM66.32,92l2.18,3.78h5.19l8.56,14.81-1.65,2.87,2,3.44-12.9,21.94L42.64,92Zm19.62,26.91h4.11l1.54-2.69h18l1.55,2.69h3.69l13.06,22.32H72.81Zm32.5-1.65,2.2-3.8L119,110.55l8.55-14.8h4.61L134.31,92h24.26L131.3,139.21Z"/><path class="cls-2" d="M83.75,71.51l-.21-.36L75.21,85.56l1.46,2.52h20.2L87.18,71.51ZM81.88,83.39l3.39-5.86,3.42,5.86Z"/><path class="cls-3" d="M100.46,86.5l9.79-16.62L108,66.06l.15-.25H93.05l.15.25-2.34,4Zm4-16-4,6.75-4-6.75Z"/><path class="cls-4" d="M90.05,60.61l1.87,3.25h17.4l1.87-3.25h4.51l12.8-21.76H72.58L85.31,60.61ZM120.3,43.54,113,55.92h-4.54l-1.35,2.35-.52.9h-12l-.52-.9-1.36-2.35H88L80.75,43.54Z"/><path class="cls-5" d="M100.45,94.21,91.19,110l2,3.48-.48.82h15.8l-.48-.82,1.81-3.15Zm-3.6,15.35,3.59-6.09,3.57,6.09Z"/><path class="cls-6" d="M111.19,118.88l-1.55-2.69h-18l-1.54,2.69H85.94L72.81,141.2h55.13l-13.06-22.32ZM81,136.51l7.62-12.95h4.14l1.35-2.34.19-.34h12.63l.2.34,1.35,2.34h3.72l7.58,12.95Z"/><path class="cls-7" d="M118.84,63l1.8,3.11-1.82,3.15,9,15.63h4.31L134,88.08h24.56l-27-46.77Zm17.87,20.44-.52-.9-1.35-2.34h-4.3l-6.31-10.93.47-.81,1.35-2.35-1.35-2.34-.43-.75,7.27-12.35,18.92,32.77Z"/><path class="cls-8" d="M132.14,95.75h-4.61L119,110.55l1.66,2.88-2.2,3.8,12.86,22L158.57,92H134.31Zm4.06,2.34.83-1.43h13.42l-19.18,33.22-7.41-12.66.84-1.45,1.35-2.34-1.35-2.35-.31-.53,5.84-10.12h4.61Z"/><path class="cls-9" d="M194.42,90.45l3.26-4.65a6.64,6.64,0,0,0-8-9.93,4.45,4.45,0,0,0-.09-.71,6.55,6.55,0,0,0-2.73-4.29A6.59,6.59,0,0,0,181,70a6.64,6.64,0,0,0-11.92-2.53l-6.84,9.74L143,44l12.1-.27A6.65,6.65,0,0,0,159.26,32a6.61,6.61,0,0,0,2.34-5.2,6.68,6.68,0,0,0-3-5.41,6.64,6.64,0,0,0-3.21-12.22l-6.1-.32-2-4.79a6.64,6.64,0,0,0-12.66,1.58,6.62,6.62,0,0,0-3.12-.78A6.68,6.68,0,0,0,125,9.91a6.67,6.67,0,0,0-2.32-.42,6.55,6.55,0,0,0-2.62.55,6.64,6.64,0,0,0-3.47,8.71l4.92,11.52h-41l4.93-11.53A6.65,6.65,0,0,0,82,10a6.55,6.55,0,0,0-2.62-.55,6.67,6.67,0,0,0-2.32.42A6.39,6.39,0,0,0,76.78,9a6.68,6.68,0,0,0-6.16-4.17,6.65,6.65,0,0,0-3.12.78,6.39,6.39,0,0,0-.4-1.45A6.63,6.63,0,0,0,54.84,4l-2,4.78-6.1.32a6.64,6.64,0,0,0-3.22,12.22A6.63,6.63,0,0,0,42.81,32a6.64,6.64,0,0,0-2.33,4.95A6.64,6.64,0,0,0,47,43.69l11.25.25L37.87,79.17l-8-11.45A6.63,6.63,0,0,0,17.94,70.2a6.46,6.46,0,0,0-2.1-.34,6.62,6.62,0,0,0-6.61,6.19,6.65,6.65,0,0,0-6.37.64A6.66,6.66,0,0,0,1.19,86l3,4.26L1.22,95.57A6.63,6.63,0,0,0,7,105.4a6.73,6.73,0,0,0,2.86-.64A6.26,6.26,0,0,0,10,106a6.54,6.54,0,0,0,2.85,4.2,6.69,6.69,0,0,0,5.69.76,6.64,6.64,0,0,0,2.92,4.6,6.72,6.72,0,0,0,3.64,1.08,6.62,6.62,0,0,0,5.55-3l7.72-11.81L58.2,136.09l-11.8,1a6.65,6.65,0,0,0-3.85,11.59,6.65,6.65,0,0,0,.7,10.47,6.64,6.64,0,0,0,4,11.93l.65,0,5.62-.48,2.44,4.83a6.64,6.64,0,0,0,12.54-2.46,6.56,6.56,0,0,0,3.2.82,6.7,6.7,0,0,0,3-.71,6.62,6.62,0,0,0,3.5-4.53,6.83,6.83,0,0,0,2.48.47,6.63,6.63,0,0,0,5.91-9.63l-4.84-9.58H120l-5.33,10.56a6.63,6.63,0,0,0,2.93,8.9,6.58,6.58,0,0,0,5.46.24,6.61,6.61,0,0,0,3.5,4.52,6.37,6.37,0,0,0,3,.72,6.63,6.63,0,0,0,3.21-.82,6.44,6.44,0,0,0,.31,1.56,6.55,6.55,0,0,0,3.33,3.84,6.62,6.62,0,0,0,8.89-2.93l2.45-4.84,5.66.48a4.68,4.68,0,0,0,.59,0A6.63,6.63,0,0,0,158,160.09a6.59,6.59,0,0,0,.7-10.46,6.69,6.69,0,0,0,2.23-4.41,6.65,6.65,0,0,0-6.07-7.17L142.49,137l19.27-33.39,6.36,9.78a6.6,6.6,0,0,0,5.56,3,6.69,6.69,0,0,0,3.63-1.07,6.61,6.61,0,0,0,2.86-4.17c0-.15.05-.28.08-.42a6.64,6.64,0,0,0,8.68-6.16,6.64,6.64,0,0,0,8.44-9.6Zm-.57-7.35-5.09,7.25,4.68,7.19a1.94,1.94,0,0,1-.57,2.69,1.89,1.89,0,0,1-1.06.31,1.94,1.94,0,0,1-1.64-.88l-5-7.69h-8.65l7.41,11.39a2,2,0,0,1-.57,2.69,1.92,1.92,0,0,1-1.07.33,1.94,1.94,0,0,1-1.63-.89L171.88,92h-7.45l10.89,16.74a1.95,1.95,0,0,1-3.27,2.12L161.53,94.65,134.74,141l19.7,1.68a1.95,1.95,0,0,1-.13,3.89h-.2l-19.46-1.66,3.71,6.35,16.08,1.36a1.95,1.95,0,0,1-.17,3.89h-.16l-13.34-1.14,4.26,7.28,9.12.78a1.95,1.95,0,0,1-.13,3.89h-.2L145,166.6l-3.86,7.65a1.95,1.95,0,0,1-3.48-1.75l4-7.89-4.37-7.46L131.33,169a2,2,0,0,1-1.75,1.07,1.83,1.83,0,0,1-.87-.21,1.93,1.93,0,0,1-.86-2.61l7.09-14.06-3.75-6.41-8.82,17.46a1.94,1.94,0,0,1-1.74,1.07,2,2,0,0,1-.88-.21,2,2,0,0,1-.85-2.62l8.75-17.35H74.07l8.27,16.39a1.95,1.95,0,0,1-3.48,1.76l-8.78-17.42-3.77,6.4,7.08,14a2,2,0,0,1-.86,2.62,2,2,0,0,1-.88.21A1.94,1.94,0,0,1,69.91,168L64,156.22l-4.36,7.42,4,7.89a1.95,1.95,0,1,1-3.48,1.76l-3.86-7.66-8.82.75H47.2a1.95,1.95,0,0,1-.12-3.89l9.13-.78,4.29-7.29-13.37,1.14h-.19a1.95,1.95,0,0,1-.14-3.89l16.12-1.38L66.65,144l-19.52,1.66H47a1.95,1.95,0,0,1-.17-3.89L66,140.13,38.65,92.85,26.77,111a2,2,0,0,1-1.63.89,2,2,0,0,1-1.07-.32,2,2,0,0,1-.56-2.7L34.58,92H27.12l-9,13.71a2,2,0,0,1-1.64.88,1.94,1.94,0,0,1-1.63-3L22.46,92H13L8.74,99.71a1.95,1.95,0,0,1-3.41-1.88l4.35-7.91L5,83.26a1.94,1.94,0,0,1,1.6-3.05,1.93,1.93,0,0,1,1.6.83l4.91,7h8.42L14.25,77.61a2,2,0,0,1,.47-2.71,2,2,0,0,1,1.12-.36,1.93,1.93,0,0,1,1.6.84l8.87,12.7h7.32L22.85,72.63a1.94,1.94,0,0,1,.48-2.71,1.87,1.87,0,0,1,1.11-.35A1.94,1.94,0,0,1,26,70.4L38.25,87.89l28-48.46L47.07,39a1.94,1.94,0,0,1-1.91-2,1.89,1.89,0,0,1,1.89-1.91h.11l19,.42-3.7-6.33-15.35-.33a2,2,0,0,1-1.91-2A1.94,1.94,0,0,1,47.07,25h.09l13,.29-4.67-8-8.28.44h-.11a1.95,1.95,0,0,1-.1-3.89l9-.48,3.19-7.47a2,2,0,0,1,1.79-1.18,1.75,1.75,0,0,1,.77.16,1.93,1.93,0,0,1,1,2.55l-3.61,8.45,4.34,7.41L68.83,10.7a1.95,1.95,0,0,1,3.58,1.53l-6.5,15.22,3.76,6.44L77.6,15.37a1.94,1.94,0,1,1,3.58,1.52L73.46,35h55.16L120.9,16.89a2,2,0,0,1,1-2.55,1.82,1.82,0,0,1,.76-.16,2,2,0,0,1,1.79,1.19L132,32.92l3.78-6.43-6.1-14.26a2,2,0,0,1,1-2.55,2,2,0,0,1,.77-.16,1.93,1.93,0,0,1,1.79,1.18l5,11.62,4.16-7.08c.06-.09.15-.15.21-.23L139.34,7.4a1.94,1.94,0,0,1,1-2.55,1.9,1.9,0,0,1,.77-.16,2,2,0,0,1,1.79,1.18l3.19,7.47,9,.48a1.95,1.95,0,0,1-.1,3.89h-.11l-9.17-.49L141,25.28,154.93,25H155a2,2,0,0,1,0,3.91l-16.33.35L135,35.55l20-.44H155A1.95,1.95,0,0,1,155,39l-20,.45,26.83,46.48,11-15.74a1.95,1.95,0,1,1,3.19,2.24l-11,15.65h7.33l9.05-12.89a1.9,1.9,0,0,1,1.59-.83,1.94,1.94,0,0,1,1.59,3.06l-7.47,10.66h8.42l5.06-7.22a2,2,0,0,1,1.6-.82,1.9,1.9,0,0,1,1.12.35A2,2,0,0,1,193.85,83.1Z"/><path class="cls-10" d="M117.49,108l.36.63,7.71-13.35L123.67,92h-20L113,108Zm1.84-11.31-3.72,6.45-3.78-6.45Z"/><path class="cls-11" d="M117.69,71.17l-.2.34H113.8l-9.74,16.57H124l1.75-3Zm-5.44,12.22,3.58-6.08,3.51,6.08Z"/><path class="cls-12" d="M83.75,108h4.08l9.41-16H77l-1.61,2.78,8,13.87Zm5.3-11.31-3.62,6.14-3.55-6.14Z"/><path class="cls-13" d="M80.6,113.43l1.65-2.87L73.69,95.75H68.5L66.32,92H42.64l27.05,46.84,12.9-21.94ZM69.72,129.51l-19-32.85H63.62l.82,1.43,1.36,2.34H71l5.85,10.14-.3.52-1.35,2.34,1.35,2.34.63,1.08Z"/><path class="cls-14" d="M68.5,84.84h4.88l9-15.63L80.6,66.06l1.68-2.91L69.57,41.43,42.64,88.08h24Zm-4.06-2.35-.52.9H50.76L69.6,50.76l7.26,12.41-.32.55-1.35,2.34,1.35,2.35.46.8L70.68,80.15H65.8Z"/></g></g></svg>