<svg xmlns="http://www.w3.org/2000/svg" xmlns:xlink="http://www.w3.org/1999/xlink" viewBox="0 0 196.19 196.2"><defs><style>.cls-1{mask:url(#mask);filter:url(#luminosity-noclip-2);}.cls-2{mix-blend-mode:multiply;fill:url(#radial-gradient);}.cls-3{fill:url(#radial-gradient-2);}.cls-4{fill:#ff8a00;}.cls-5{mask:url(#mask-2);}.cls-6{fill:url(#radial-gradient-3);}.cls-7{filter:url(#luminosity-noclip);}</style><filter id="luminosity-noclip" x="37.84" y="-8413.84" width="93.87" height="32766" filterUnits="userSpaceOnUse" color-interpolation-filters="sRGB"><feFlood flood-color="#fff" result="bg"/><feBlend in="SourceGraphic" in2="bg"/></filter><mask id="mask" x="37.84" y="-8413.84" width="93.87" height="32766" maskUnits="userSpaceOnUse"><g class="cls-7"/></mask><radialGradient id="radial-gradient" cx="82.95" cy="49.34" fx="105.14611702052966" fy="15.602696929624287" r="65.47" gradientUnits="userSpaceOnUse"><stop offset="0.26" stop-color="#fff"/><stop offset="0.73" stop-color="#fff"/><stop offset="0.97"/></radialGradient><radialGradient id="radial-gradient-2" cx="95.82" cy="98.1" fx="81.42735183255756" fy="77.37043832840025" r="70.13" gradientUnits="userSpaceOnUse"><stop offset="0.14" stop-color="#fff75d"/><stop offset="0.53" stop-color="#ffde00"/><stop offset="0.92" stop-color="#ff7d00"/></radialGradient><filter id="luminosity-noclip-2" x="37.84" y="43.67" width="93.87" height="63.07" filterUnits="userSpaceOnUse" color-interpolation-filters="sRGB"><feFlood flood-color="#fff" result="bg"/><feBlend in="SourceGraphic" in2="bg"/></filter><mask id="mask-2" x="37.84" y="43.67" width="93.87" height="63.07" maskUnits="userSpaceOnUse"><g class="cls-1"><path class="cls-2" d="M56.84,57.53c11.59-11.86,41.61-19.92,62.85-8s14.16,34.52-19.92,33.19S45.11,93.83,42.45,104.45,28.07,87,56.84,57.53Z"/></g></mask><radialGradient id="radial-gradient-3" cx="82.95" cy="49.34" fx="105.14611702052966" fy="15.602696929624287" r="65.47" gradientUnits="userSpaceOnUse"><stop offset="0.26" stop-color="#fff"/><stop offset="0.73" stop-color="#fff75d"/><stop offset="0.97" stop-color="#ffde00"/></radialGradient></defs><g id="Calque_2" data-name="Calque 2"><g id="Layer_1" data-name="Layer 1"><path class="cls-3" d="M97.15,38.48a62.94,62.94,0,1,0,62.94,62.94A62.95,62.95,0,0,0,97.15,38.48Z"/><path class="cls-4" d="M97.15,38.48a62.94,62.94,0,1,0,62.94,62.94A62.95,62.95,0,0,0,97.15,38.48ZM94.93,160.19a58.77,58.77,0,1,1,58.77-58.77A58.77,58.77,0,0,1,94.93,160.19Z"/><path class="cls-4" d="M104,17.66a6.16,6.16,0,0,1-5.89,6.39h0a6.16,6.16,0,0,1-5.9-6.39V6.39A6.16,6.16,0,0,1,98.1,0h0A6.16,6.16,0,0,1,104,6.39Z"/><path class="cls-4" d="M104,189.81a6.16,6.16,0,0,1-5.89,6.39h0a6.16,6.16,0,0,1-5.9-6.39V178.55a6.15,6.15,0,0,1,5.9-6.39h0a6.15,6.15,0,0,1,5.89,6.39Z"/><path class="cls-4" d="M178.54,104a6.15,6.15,0,0,1-6.38-5.9h0a6.15,6.15,0,0,1,6.38-5.9h11.27a6.15,6.15,0,0,1,6.38,5.9h0a6.15,6.15,0,0,1-6.38,5.9Z"/><path class="cls-4" d="M6.39,104A6.16,6.16,0,0,1,0,98.1H0a6.16,6.16,0,0,1,6.39-5.9H17.65A6.16,6.16,0,0,1,24,98.1h0a6.16,6.16,0,0,1-6.39,5.9Z"/><path class="cls-4" d="M159.15,45.39a6.16,6.16,0,0,1-8.69.34h0a6.15,6.15,0,0,1,.35-8.68l8-8a6.16,6.16,0,0,1,8.69-.35h0a6.16,6.16,0,0,1-.34,8.69Z"/><path class="cls-4" d="M37.42,167.12a6.16,6.16,0,0,1-8.69.34h0a6.15,6.15,0,0,1,.35-8.68l8-8a6.16,6.16,0,0,1,8.69-.35h0a6.16,6.16,0,0,1-.35,8.7Z"/><path class="cls-4" d="M150.81,159.16a6.17,6.17,0,0,1-.35-8.7h0a6.16,6.16,0,0,1,8.69.35l8,8a6.15,6.15,0,0,1,.34,8.68h0a6.15,6.15,0,0,1-8.69-.34Z"/><path class="cls-4" d="M29.08,37.42a6.16,6.16,0,0,1-.35-8.69h0a6.16,6.16,0,0,1,8.69.35l8,8a6.14,6.14,0,0,1,.35,8.68h0A6.16,6.16,0,0,1,37,45.39Z"/><g class="cls-5"><path class="cls-6" d="M56.84,57.53c11.59-11.86,41.61-19.92,62.85-8s14.16,34.52-19.92,33.19S45.11,93.83,42.45,104.45,28.07,87,56.84,57.53Z"/></g></g></g></svg>