<svg xmlns="http://www.w3.org/2000/svg" xmlns:xlink="http://www.w3.org/1999/xlink" viewBox="0 0 261.09 167.21"><defs><style>.cls-1{mask:url(#mask);}.cls-10,.cls-12,.cls-14,.cls-16,.cls-19,.cls-2,.cls-21,.cls-4,.cls-6{mix-blend-mode:multiply;}.cls-2{fill:url(#radial-gradient);}.cls-3{mask:url(#mask-2);}.cls-4{fill:url(#radial-gradient-2);}.cls-5{mask:url(#mask-3);}.cls-6{fill:url(#radial-gradient-3);}.cls-7{mask:url(#mask-4);}.cls-24,.cls-26,.cls-28,.cls-30,.cls-35,.cls-37,.cls-39,.cls-41,.cls-8{mix-blend-mode:screen;}.cls-8{fill:url(#radial-gradient-4);}.cls-9{mask:url(#mask-5);}.cls-10{fill:url(#radial-gradient-5);}.cls-11{mask:url(#mask-6);}.cls-12{fill:url(#radial-gradient-6);}.cls-13{mask:url(#mask-7);}.cls-14{fill:url(#radial-gradient-7);}.cls-15{mask:url(#mask-8);}.cls-16{fill:url(#radial-gradient-8);}.cls-17{isolation:isolate;}.cls-18{fill:url(#radial-gradient-9);}.cls-19{opacity:0.3;}.cls-20{fill:url(#radial-gradient-10);}.cls-21,.cls-22,.cls-33{opacity:0.4;}.cls-22{fill:#6f8aa4;}.cls-23{mask:url(#mask-9);}.cls-24{fill:url(#radial-gradient-11);}.cls-25{mask:url(#mask-10);}.cls-26{fill:url(#radial-gradient-12);}.cls-27{mask:url(#mask-11);}.cls-28{fill:url(#radial-gradient-13);}.cls-29{mask:url(#mask-12);}.cls-30{fill:url(#radial-gradient-14);}.cls-31{fill:url(#radial-gradient-15);}.cls-32{fill:url(#radial-gradient-16);}.cls-33{fill:#39556e;}.cls-34{mask:url(#mask-13);}.cls-35{fill:url(#radial-gradient-17);}.cls-36{mask:url(#mask-14);}.cls-37{fill:url(#radial-gradient-18);}.cls-38{mask:url(#mask-15);}.cls-39{fill:url(#radial-gradient-19);}.cls-40{mask:url(#mask-16);}.cls-41{fill:url(#radial-gradient-20);}.cls-42{fill:url(#radial-gradient-21);}.cls-43{fill:#ff8a00;}.cls-44{fill:#fff;}.cls-45{filter:url(#luminosity-noclip-8);}.cls-46{filter:url(#luminosity-noclip-7);}.cls-47{filter:url(#luminosity-noclip-6);}.cls-48{filter:url(#luminosity-noclip-5);}.cls-49{filter:url(#luminosity-noclip-4);}.cls-50{filter:url(#luminosity-noclip-3);}.cls-51{filter:url(#luminosity-noclip-2);}.cls-52{filter:url(#luminosity-noclip);}</style><filter id="luminosity-noclip" x="86.51" y="-8041.73" width="63.18" height="32766" filterUnits="userSpaceOnUse" color-interpolation-filters="sRGB"><feFlood flood-color="#fff" result="bg"/><feBlend in="SourceGraphic" in2="bg"/></filter><mask id="mask" x="86.51" y="-8041.73" width="63.18" height="32766" maskUnits="userSpaceOnUse"><g class="cls-52"/></mask><radialGradient id="radial-gradient" cx="118.37" cy="-27.18" r="82.05" gradientUnits="userSpaceOnUse"><stop offset="0.52" stop-color="#fff"/><stop offset="0.7" stop-color="#fff"/><stop offset="0.97"/></radialGradient><filter id="luminosity-noclip-2" x="115.29" y="-8041.73" width="54.85" height="32766" filterUnits="userSpaceOnUse" color-interpolation-filters="sRGB"><feFlood flood-color="#fff" result="bg"/><feBlend in="SourceGraphic" in2="bg"/></filter><mask id="mask-2" x="115.29" y="-8041.73" width="54.85" height="32766" maskUnits="userSpaceOnUse"><g class="cls-51"/></mask><radialGradient id="radial-gradient-2" cx="117.2" cy="85.58" r="52.41" gradientUnits="userSpaceOnUse"><stop offset="0.15" stop-color="#fff"/><stop offset="0.46" stop-color="#fff"/><stop offset="0.99"/></radialGradient><filter id="luminosity-noclip-3" x="86.7" y="-8041.73" width="30.98" height="32766" filterUnits="userSpaceOnUse" color-interpolation-filters="sRGB"><feFlood flood-color="#fff" result="bg"/><feBlend in="SourceGraphic" in2="bg"/></filter><mask id="mask-3" x="86.7" y="-8041.73" width="30.98" height="32766" maskUnits="userSpaceOnUse"><g class="cls-50"/></mask><radialGradient id="radial-gradient-3" cx="77.6" cy="110.7" r="38.48" gradientUnits="userSpaceOnUse"><stop offset="0.15" stop-color="#fff"/><stop offset="0.46" stop-color="#fff"/><stop offset="1"/></radialGradient><filter id="luminosity-noclip-4" x="186.71" y="-8041.73" width="59.94" height="32766" filterUnits="userSpaceOnUse" color-interpolation-filters="sRGB"><feFlood flood-color="#fff" result="bg"/><feBlend in="SourceGraphic" in2="bg"/></filter><mask id="mask-4" x="186.71" y="-8041.73" width="59.94" height="32766" maskUnits="userSpaceOnUse"><g class="cls-49"/></mask><radialGradient id="radial-gradient-4" cx="225.01" cy="51.02" r="84.33" gradientUnits="userSpaceOnUse"><stop offset="0.55" stop-color="#fff"/><stop offset="0.74" stop-color="#fff"/><stop offset="0.99"/></radialGradient><filter id="luminosity-noclip-5" x="43.04" y="-8041.73" width="61.56" height="32766" filterUnits="userSpaceOnUse" color-interpolation-filters="sRGB"><feFlood flood-color="#fff" result="bg"/><feBlend in="SourceGraphic" in2="bg"/></filter><mask id="mask-5" x="43.04" y="-8041.73" width="61.56" height="32766" maskUnits="userSpaceOnUse"><g class="cls-48"/></mask><radialGradient id="radial-gradient-5" cx="45.18" cy="32.61" r="58.83" xlink:href="#radial-gradient-2"/><filter id="luminosity-noclip-6" x="10.95" y="-8041.73" width="34.77" height="32766" filterUnits="userSpaceOnUse" color-interpolation-filters="sRGB"><feFlood flood-color="#fff" result="bg"/><feBlend in="SourceGraphic" in2="bg"/></filter><mask id="mask-6" x="10.95" y="-8041.73" width="34.77" height="32766" maskUnits="userSpaceOnUse"><g class="cls-47"/></mask><radialGradient id="radial-gradient-6" cx="0.74" cy="60.8" r="43.19" xlink:href="#radial-gradient-2"/><filter id="luminosity-noclip-7" x="123.19" y="-8041.73" width="67.28" height="32766" filterUnits="userSpaceOnUse" color-interpolation-filters="sRGB"><feFlood flood-color="#fff" result="bg"/><feBlend in="SourceGraphic" in2="bg"/></filter><mask id="mask-7" x="123.19" y="-8041.73" width="67.28" height="32766" maskUnits="userSpaceOnUse"><g class="cls-46"/></mask><radialGradient id="radial-gradient-7" cx="166.19" cy="-6.19" r="94.65" gradientUnits="userSpaceOnUse"><stop offset="0.55" stop-color="#fff"/><stop offset="0.74" stop-color="#fff"/><stop offset="0.99"/></radialGradient><filter id="luminosity-noclip-8" x="154.02" y="-8041.73" width="56.29" height="32766" filterUnits="userSpaceOnUse" color-interpolation-filters="sRGB"><feFlood flood-color="#fff" result="bg"/><feBlend in="SourceGraphic" in2="bg"/></filter><mask id="mask-8" x="154.02" y="-8041.73" width="56.29" height="32766" maskUnits="userSpaceOnUse"><g class="cls-45"/></mask><radialGradient id="radial-gradient-8" cx="182.41" cy="32.31" r="73.11" gradientUnits="userSpaceOnUse"><stop offset="0.52" stop-color="#fff"/><stop offset="0.7" stop-color="#fff"/><stop offset="0.99"/></radialGradient><radialGradient id="radial-gradient-9" cx="111.61" cy="-140.67" r="265.49" gradientUnits="userSpaceOnUse"><stop offset="0.16" stop-color="#bcbcbc"/><stop offset="0.69" stop-color="#92bac0"/><stop offset="1" stop-color="#549cc6"/></radialGradient><radialGradient id="radial-gradient-10" cx="111.61" cy="-140.67" r="265.49" gradientUnits="userSpaceOnUse"><stop offset="0.39" stop-color="#92bac0"/><stop offset="1" stop-color="#549cc6"/></radialGradient><mask id="mask-9" x="86.51" y="8.81" width="63.18" height="54" maskUnits="userSpaceOnUse"><g class="cls-1"><path class="cls-2" d="M97.63,18.36c-14,13.22-10.81,28.48-10.81,28.48,4.4,27.28,63.26,17.57,62.86-13.66S111.65,5.15,97.63,18.36Z"/></g></mask><radialGradient id="radial-gradient-11" cx="118.37" cy="-27.18" r="82.05" gradientUnits="userSpaceOnUse"><stop offset="0.52" stop-color="#bcbcbc"/><stop offset="0.7" stop-color="#92bac0"/><stop offset="0.99" stop-color="#549cc6"/></radialGradient><mask id="mask-10" x="43.04" y="28.93" width="61.56" height="65.15" maskUnits="userSpaceOnUse"><g class="cls-9"><path class="cls-10" d="M82.83,47.08c-2.52-4.62-4.2-11.37-3-17-15.42-4.57-29.09,5.55-34.05,19.08-7.12,19.42,1.86,36.3,1.86,36.3C60.6,105.9,99,86.5,104.61,64,95.71,60.85,87.46,55.55,82.83,47.08Z"/></g></mask><radialGradient id="radial-gradient-12" cx="45.18" cy="32.61" r="58.83" gradientUnits="userSpaceOnUse"><stop offset="0.15" stop-color="#bcbcbc"/><stop offset="0.46" stop-color="#92bac0"/><stop offset="0.99" stop-color="#549cc6"/></radialGradient><mask id="mask-11" x="10.95" y="68.56" width="34.77" height="29.09" maskUnits="userSpaceOnUse"><g class="cls-11"><path class="cls-12" d="M43.23,80.37,40.39,79a51.5,51.5,0,0,1-5.76-10.44S11.26,69.59,11,84.79c-.31,14.71,28,12.78,28,12.78S50.73,83.11,43.23,80.37Z"/></g></mask><radialGradient id="radial-gradient-13" cx="0.74" cy="60.8" r="43.19" xlink:href="#radial-gradient-12"/><mask id="mask-12" x="123.19" y="53.64" width="67.28" height="45.07" maskUnits="userSpaceOnUse"><g class="cls-13"><path class="cls-14" d="M124.06,85.52c-4.39-9.76,8.3-26.35,28.31-30.74s33.68,4.39,37.58,19S175.3,99.18,156.76,98.7,128.72,95.87,124.06,85.52Z"/></g></mask><radialGradient id="radial-gradient-14" cx="166.19" cy="-6.19" r="94.65" gradientUnits="userSpaceOnUse"><stop offset="0.55" stop-color="#bcbcbc"/><stop offset="0.74" stop-color="#92bac0"/><stop offset="0.99" stop-color="#549cc6"/></radialGradient><radialGradient id="radial-gradient-15" cx="176.39" cy="-68.82" r="236.55" gradientUnits="userSpaceOnUse"><stop offset="0.16" stop-color="#757575"/><stop offset="0.69" stop-color="#51797f"/><stop offset="1" stop-color="#17658c"/></radialGradient><radialGradient id="radial-gradient-16" cx="176.39" cy="-68.82" r="236.55" gradientUnits="userSpaceOnUse"><stop offset="0.39" stop-color="#51797f"/><stop offset="1" stop-color="#17658c"/></radialGradient><mask id="mask-13" x="154.02" y="64.38" width="56.29" height="48.11" maskUnits="userSpaceOnUse"><g class="cls-15"><path class="cls-16" d="M163.93,72.89c-12.49,11.77-9.63,25.37-9.63,25.37,3.92,24.31,56.37,15.66,56-12.18S176.42,61.12,163.93,72.89Z"/></g></mask><radialGradient id="radial-gradient-17" cx="182.41" cy="32.31" r="73.11" gradientUnits="userSpaceOnUse"><stop offset="0.52" stop-color="#757575"/><stop offset="0.7" stop-color="#51797f"/><stop offset="0.99" stop-color="#17658c"/></radialGradient><mask id="mask-14" x="115.29" y="82.3" width="54.85" height="58.05" maskUnits="userSpaceOnUse"><g class="cls-3"><path class="cls-4" d="M150.74,98.47c-2.25-4.12-3.74-10.12-2.66-15.18-13.75-4.07-25.92,4.94-30.34,17-6.34,17.3,1.66,32.35,1.66,32.35,11.54,18.24,45.73,1,50.74-19.09C162.21,110.74,154.87,106,150.74,98.47Z"/></g></mask><radialGradient id="radial-gradient-18" cx="117.2" cy="85.58" r="52.41" gradientUnits="userSpaceOnUse"><stop offset="0.15" stop-color="#757575"/><stop offset="0.46" stop-color="#51797f"/><stop offset="0.99" stop-color="#17658c"/></radialGradient><mask id="mask-15" x="86.7" y="117.62" width="30.98" height="25.92" maskUnits="userSpaceOnUse"><g class="cls-5"><path class="cls-6" d="M115.46,128.13l-2.53-1.22a46,46,0,0,1-5.14-9.29S87,118.54,86.7,132.07c-.27,13.11,24.92,11.39,24.92,11.39S122.14,130.58,115.46,128.13Z"/></g></mask><radialGradient id="radial-gradient-19" cx="77.6" cy="110.7" r="38.48" xlink:href="#radial-gradient-18"/><mask id="mask-16" x="186.71" y="104.32" width="59.94" height="40.16" maskUnits="userSpaceOnUse"><g class="cls-7"><path class="cls-8" d="M187.48,132.72c-3.91-8.69,7.4-23.47,25.22-27.38s30,3.9,33.48,17-13.05,22.61-29.56,22.18S191.63,142,187.48,132.72Z"/></g></mask><radialGradient id="radial-gradient-20" cx="225.01" cy="51.02" r="84.33" gradientUnits="userSpaceOnUse"><stop offset="0.55" stop-color="#757575"/><stop offset="0.74" stop-color="#51797f"/><stop offset="0.99" stop-color="#17658c"/></radialGradient><radialGradient id="radial-gradient-21" cx="194.15" cy="140.15" r="119.04" gradientUnits="userSpaceOnUse"><stop offset="0.14" stop-color="#fff75d"/><stop offset="0.53" stop-color="#ffde00"/><stop offset="0.92" stop-color="#ff7d00"/></radialGradient></defs><g class="cls-17"><g id="Calque_2" data-name="Calque 2"><g id="Layer_1" data-name="Layer 1"><path class="cls-18" d="M205,72.56c-5.31-19.34-26.49-29-44.16-25.95,4.54-8.22,2.44-19.39-.85-27.73C155.93,8.66,143.12.67,131.14.06a52.47,52.47,0,0,0-8.07.27,37.6,37.6,0,0,0-6.33,1c-8.16,1.76-16.14,5.21-22,10.07a40.32,40.32,0,0,0-9.85,12.94,38.78,38.78,0,0,0-23.46-1C45.49,27.91,33.33,45.58,35.62,62c0,.29,0,.59,0,.88A39.25,39.25,0,0,0,22,64.27a22.3,22.3,0,0,0-3,1,28.3,28.3,0,0,0-5.69,2.65C4,73.82-3,86,1.3,97.19c5.55,14.41,21,16.83,34.76,18.65a74.93,74.93,0,0,0,24-.72,72.53,72.53,0,0,0,16.1,5c13.69,3.27,28.27,3.62,42.25,4.08a138.49,138.49,0,0,0,34.23-3.24,52.38,52.38,0,0,0,24.18-.46c13.66-3.68,27.81-15.57,29.37-30.89A36.31,36.31,0,0,0,205,72.56Z"/><g class="cls-19"><path class="cls-20" d="M205,72.56c-5.31-19.34-26.49-29-44.16-25.95,4.54-8.22,2.44-19.39-.85-27.73C155.93,8.66,143.12.67,131.14.06a52.47,52.47,0,0,0-8.07.27,37.6,37.6,0,0,0-6.33,1c-8.16,1.76-16.14,5.21-22,10.07a40.32,40.32,0,0,0-9.85,12.94,38.78,38.78,0,0,0-23.46-1C45.49,27.91,33.33,45.58,35.62,62c0,.29,0,.59,0,.88A39.25,39.25,0,0,0,22,64.27a22.3,22.3,0,0,0-3,1,28.3,28.3,0,0,0-5.69,2.65C4,73.82-3,86,1.3,97.19c5.55,14.41,21,16.83,34.76,18.65a74.93,74.93,0,0,0,24-.72,72.53,72.53,0,0,0,16.1,5c13.69,3.27,28.27,3.62,42.25,4.08a138.49,138.49,0,0,0,34.23-3.24,52.38,52.38,0,0,0,24.18-.46c13.66-3.68,27.81-15.57,29.37-30.89A36.31,36.31,0,0,0,205,72.56ZM180.23,89.33C166,106.08,131.45,105.1,121,85.11c-.07,7.09,1.31,13.88,5.51,20.18,1.61,2.47-12.44,6.55-35.17,4-13.38-1.52-49.7-3.86-50.89-18.36a11.16,11.16,0,0,0-1.29,6.59c-29.34,8.91-47.27-24-4.57-28.92,1.46,3.17,2.56,7.94,6.22,11.84-1.22-12,.78-25.54,3.48-31.05,13.17-26.91,35.9-20,35.87-19.22-.18,7.5,1.28,11.71,5.13,16.66-2.21-13,3-20.18,10.87-26.49A43.63,43.63,0,0,1,127,10.68c9.66.87,19.78,5.38,21.86,15.89,2.59,13.11-3.14,24-11.25,33.38,12.09-6.86,25.87-12.36,38.29-3C185.26,64,188,80.22,180.23,89.33Z"/></g><g class="cls-21"><path class="cls-22" d="M205,72.56c-5.31-19.34-26.49-29-44.16-25.95,4.54-8.22,2.44-19.39-.85-27.73C155.93,8.66,143.12.67,131.14.06a52.47,52.47,0,0,0-8.07.27,37.6,37.6,0,0,0-6.33,1c-8.16,1.76-16.14,5.21-22,10.07a40.32,40.32,0,0,0-9.85,12.94,38.78,38.78,0,0,0-23.46-1C45.49,27.91,33.33,45.58,35.62,62c0,.29,0,.59,0,.88A39.25,39.25,0,0,0,22,64.27a22.3,22.3,0,0,0-3,1,28.3,28.3,0,0,0-5.69,2.65C4,73.82-3,86,1.3,97.19c5.55,14.41,21,16.83,34.76,18.65a74.93,74.93,0,0,0,24-.72,72.53,72.53,0,0,0,16.1,5c13.69,3.27,28.27,3.62,42.25,4.08a138.49,138.49,0,0,0,34.23-3.24,52.38,52.38,0,0,0,24.18-.46c13.66-3.68,27.81-15.57,29.37-30.89A36.31,36.31,0,0,0,205,72.56Zm-8.13,26.25c-3.8,9.07-12.41,15.72-23.17,17.79-9.31,1.8-19.74,2.59-28.78-.95a27.64,27.64,0,0,1-9.35-6.09c-.56-.55-1.23-1.14-1.83-1.8a23.47,23.47,0,0,0,11.75,10.79,159.17,159.17,0,0,1-28.89,1.7c-10-.26-33.73-.79-47.17-5.42a54.94,54.94,0,0,1-14.87-6.75c-5-3.28-10.57-7.77-13.94-13.21,2.29,7.67,7.46,13.29,14,17.34-1.07.14-2.15.27-3.24.35-11.55.87-24.91-1.25-35.43-6.15-12.74-5.92-13.52-22-4.7-31.51C16.56,69.15,27,66.43,36,67.07A33.42,33.42,0,0,0,39.72,78a53.86,53.86,0,0,1-.31-21.82A39.35,39.35,0,0,1,54.64,30.84,29.71,29.71,0,0,1,65.42,26.6a33.8,33.8,0,0,1,17.94,1.5c-1.46,4.34-1.81,8.75-.22,12.5-.7-6,1.77-12.27,5.45-17A43.3,43.3,0,0,1,131.74,5.07c14.19,2.45,18.73,7.77,23.28,14.69,5.1,7.72,5.07,19.51,1.59,27.87a29.48,29.48,0,0,0-13.55,9.14,37.89,37.89,0,0,1,15.76-5.31A44.22,44.22,0,0,1,177.22,53c7.24,2.34,15.24,7.79,19,15C198.07,71.22,203.05,86.84,196.83,98.81Z"/></g><g class="cls-23"><path class="cls-24" d="M97.63,18.36c-14,13.22-10.81,28.48-10.81,28.48,4.4,27.28,63.26,17.57,62.86-13.66S111.65,5.15,97.63,18.36Z"/></g><g class="cls-25"><path class="cls-26" d="M82.83,47.08c-2.52-4.62-4.2-11.37-3-17-15.42-4.57-29.09,5.55-34.05,19.08-7.12,19.42,1.86,36.3,1.86,36.3C60.6,105.9,99,86.5,104.61,64,95.71,60.85,87.46,55.55,82.83,47.08Z"/></g><g class="cls-27"><path class="cls-28" d="M43.23,80.37,40.39,79a51.5,51.5,0,0,1-5.76-10.44S11.26,69.59,11,84.79c-.31,14.71,28,12.78,28,12.78S50.73,83.11,43.23,80.37Z"/></g><g class="cls-29"><path class="cls-30" d="M124.06,85.52c-4.39-9.76,8.3-26.35,28.31-30.74s33.68,4.39,37.58,19S175.3,99.18,156.76,98.7,128.72,95.87,124.06,85.52Z"/></g><path class="cls-31" d="M259.56,121.18c-4.74-17.24-23.6-25.87-39.35-23.13,4-7.32,2.17-17.27-.75-24.7-3.59-9.11-15-16.22-25.68-16.78a47.21,47.21,0,0,0-7.18.25,33.93,33.93,0,0,0-5.65.86c-7.27,1.57-14.37,4.65-19.58,9a35.92,35.92,0,0,0-8.78,11.53,34.54,34.54,0,0,0-20.9-.89c-14.21,4.1-25,19.84-23,34.42,0,.26,0,.53,0,.79a34.82,34.82,0,0,0-12.19,1.28,19.89,19.89,0,0,0-2.68.84A26.13,26.13,0,0,0,88.76,117c-8.3,5.3-14.49,16.19-10.66,26.12,5,12.84,18.75,15,31,16.62a66.76,66.76,0,0,0,21.4-.65,64.49,64.49,0,0,0,14.35,4.43c12.19,2.91,25.19,3.23,37.65,3.63A123.41,123.41,0,0,0,213,164.27a46.53,46.53,0,0,0,21.54-.42c12.18-3.28,24.78-13.87,26.17-27.51A32.49,32.49,0,0,0,259.56,121.18Z"/><g class="cls-19"><path class="cls-32" d="M259.56,121.18c-4.74-17.24-23.6-25.87-39.35-23.13,4-7.32,2.17-17.27-.75-24.7-3.59-9.11-15-16.22-25.68-16.78a47.21,47.21,0,0,0-7.18.25,33.93,33.93,0,0,0-5.65.86c-7.27,1.57-14.37,4.65-19.58,9a35.92,35.92,0,0,0-8.78,11.53,34.54,34.54,0,0,0-20.9-.89c-14.21,4.1-25,19.84-23,34.42,0,.26,0,.53,0,.79a34.82,34.82,0,0,0-12.19,1.28,19.89,19.89,0,0,0-2.68.84A26.13,26.13,0,0,0,88.76,117c-8.3,5.3-14.49,16.19-10.66,26.12,5,12.84,18.75,15,31,16.62a66.76,66.76,0,0,0,21.4-.65,64.49,64.49,0,0,0,14.35,4.43c12.19,2.91,25.19,3.23,37.65,3.63A123.41,123.41,0,0,0,213,164.27a46.53,46.53,0,0,0,21.54-.42c12.18-3.28,24.78-13.87,26.17-27.51A32.49,32.49,0,0,0,259.56,121.18Zm-22,14.94c-12.66,14.93-43.48,14-52.74-3.76-.06,6.32,1.17,12.37,4.91,18,1.43,2.2-11.09,5.83-31.34,3.53-11.92-1.36-44.29-3.45-45.35-16.36a10,10,0,0,0-1.14,5.87c-26.15,7.93-42.13-21.42-4.08-25.76,1.31,2.82,2.29,7.06,5.54,10.54-1.08-10.65.7-22.76,3.11-27.67,11.73-24,32-17.83,31.95-17.12-.16,6.69,1.15,10.44,4.57,14.84-2-11.57,2.66-18,9.69-23.59A38.87,38.87,0,0,1,190.13,66c8.61.78,17.62,4.79,19.48,14.16,2.31,11.68-2.8,21.35-10,29.74,10.77-6.12,23-11,34.11-2.66C242,113.55,244.41,128,237.53,136.12Z"/></g><g class="cls-21"><path class="cls-33" d="M259.56,121.18c-4.74-17.24-23.6-25.87-39.35-23.13,4-7.32,2.17-17.27-.75-24.7-3.59-9.11-15-16.22-25.68-16.78a47.21,47.21,0,0,0-7.18.25,33.93,33.93,0,0,0-5.65.86c-7.27,1.57-14.37,4.65-19.58,9a35.92,35.92,0,0,0-8.78,11.53,34.54,34.54,0,0,0-20.9-.89c-14.21,4.1-25,19.84-23,34.42,0,.26,0,.53,0,.79a34.82,34.82,0,0,0-12.19,1.28,19.89,19.89,0,0,0-2.68.84A26.13,26.13,0,0,0,88.76,117c-8.3,5.3-14.49,16.19-10.66,26.12,5,12.84,18.75,15,31,16.62a66.76,66.76,0,0,0,21.4-.65,64.49,64.49,0,0,0,14.35,4.43c12.19,2.91,25.19,3.23,37.65,3.63A123.41,123.41,0,0,0,213,164.27a46.53,46.53,0,0,0,21.54-.42c12.18-3.28,24.78-13.87,26.17-27.51A32.49,32.49,0,0,0,259.56,121.18Zm-7.24,23.39c-3.39,8.07-11.07,14-20.65,15.85-8.29,1.6-17.58,2.31-25.65-.85a24.71,24.71,0,0,1-8.32-5.43c-.51-.48-1.1-1-1.64-1.6a20.93,20.93,0,0,0,10.48,9.62,142.64,142.64,0,0,1-25.75,1.5c-8.95-.23-30-.7-42-4.82a48.58,48.58,0,0,1-13.25-6c-4.48-2.91-9.42-6.91-12.42-11.76,2,6.83,6.65,11.84,12.48,15.44-1,.12-1.91.25-2.88.31a66.55,66.55,0,0,1-31.58-5.47c-11.35-5.28-12-19.59-4.18-28.08,4.76-5.12,14.09-7.54,22.12-7a29.55,29.55,0,0,0,3.27,9.72,47.89,47.89,0,0,1-.28-19.44A35.13,35.13,0,0,1,125.62,84a26.79,26.79,0,0,1,9.62-3.78,30.08,30.08,0,0,1,16,1.35c-1.3,3.86-1.61,7.79-.2,11.13-.62-5.3,1.58-10.93,4.87-15.11A38.54,38.54,0,0,1,194.33,61C207,63.23,211,68,215.06,74.13,219.6,81,219.58,91.52,216.48,99a26.3,26.3,0,0,0-12.08,8.14,33.9,33.9,0,0,1,14-4.73,39.35,39.35,0,0,1,16.4,1.32c6.45,2.09,13.58,7,16.93,13.35C253.41,120,257.86,133.9,252.32,144.57Z"/></g><g class="cls-34"><path class="cls-35" d="M163.93,72.89c-12.49,11.77-9.63,25.37-9.63,25.37,3.92,24.31,56.37,15.66,56-12.18S176.42,61.12,163.93,72.89Z"/></g><g class="cls-36"><path class="cls-37" d="M150.74,98.47c-2.25-4.12-3.74-10.12-2.66-15.18-13.75-4.07-25.92,4.94-30.34,17-6.34,17.3,1.66,32.35,1.66,32.35,11.54,18.24,45.73,1,50.74-19.09C162.21,110.74,154.87,106,150.74,98.47Z"/></g><g class="cls-38"><path class="cls-39" d="M115.46,128.13l-2.53-1.22a46,46,0,0,1-5.14-9.29S87,118.54,86.7,132.07c-.27,13.11,24.92,11.39,24.92,11.39S122.14,130.58,115.46,128.13Z"/></g><g class="cls-40"><path class="cls-41" d="M187.48,132.72c-3.91-8.69,7.4-23.47,25.22-27.38s30,3.9,33.48,17-13.05,22.61-29.56,22.18S191.63,142,187.48,132.72Z"/></g><path class="cls-42" d="M183.67,66.56l-3.36,6.12-2.11,3.85h20l-30.37,48.12-11.15,17.66,15.13-14.4,65.67-62.45,4.7-4.48H222.94l13.28-15,8.55-9.67,4.29-4.81c1.46-1.59,2.92-3.17,4.26-4.85L257,22l-5.63.31c-14,.78-27.92,1.52-41.88,2.59-5.09,7.84-10,15.76-15,23.66l-7.44,11.86C185.81,62.42,184.76,64.5,183.67,66.56Z"/><path class="cls-43" d="M183.67,66.56l-3.36,6.12-2.11,3.85h20l-30.37,48.12-11.15,17.66,15.13-14.4,65.67-62.45,4.7-4.48H222.94l13.28-15,8.55-9.67,4.29-4.81c1.46-1.59,2.92-3.17,4.26-4.85L257,22l-5.63.31c-14,.78-27.92,1.52-41.88,2.59-5.09,7.84-10,15.76-15,23.66l-7.44,11.86C185.81,62.42,184.76,64.5,183.67,66.56Zm7.88-3.65L195,55.66,211.26,27.3s30.37-.32,34.59-.09l-.7.81-4.26,4.85-8.56,9.66-17.1,19.32-3.83,4.32h17.8L162.57,135l42.55-59.64,2.51-4H187l1.26-2.27C189.38,67,190.56,65,191.55,62.91Z"/><polygon class="cls-44" points="211.26 27.3 181.98 74.44 202.26 74.28 161.05 136.59 209.08 70.71 189.6 70.27 216.87 28.68 249.32 25.11 211.26 27.3"/></g></g></g></svg>